<mxfile host="app.diagrams.net" agent="Mozilla/5.0 (Windows NT 10.0; Win64; x64) AppleWebKit/537.36 (KHTML, like Gecko) Chrome/136.0.0.0 Safari/537.36 Edg/136.0.0.0" version="27.0.3" pages="2">
  <diagram name="main" id="umrwjSgqTs6-wb3iwprB">
    <mxGraphModel dx="2980" dy="1960" grid="1" gridSize="10" guides="1" tooltips="1" connect="1" arrows="1" fold="1" page="1" pageScale="1" pageWidth="3300" pageHeight="4681" math="0" shadow="0">
      <root>
        <mxCell id="0" />
        <mxCell id="1" parent="0" />
        <mxCell id="M1dsXv7yGWbkJlxqNbTj-58" value="" style="group" vertex="1" connectable="0" parent="1">
          <mxGeometry x="2290" y="2820" width="720" height="140" as="geometry" />
        </mxCell>
        <mxCell id="M1dsXv7yGWbkJlxqNbTj-48" value="选必二" style="rounded=1;whiteSpace=wrap;html=1;strokeColor=default;align=center;verticalAlign=middle;fontFamily=Helvetica;fontSize=12;fontColor=default;resizable=1;fillColor=default;" vertex="1" parent="M1dsXv7yGWbkJlxqNbTj-58">
          <mxGeometry width="120" height="60" as="geometry" />
        </mxCell>
        <mxCell id="M1dsXv7yGWbkJlxqNbTj-49" value="安培力与洛伦兹力" style="rounded=1;whiteSpace=wrap;html=1;strokeColor=default;align=center;verticalAlign=middle;fontFamily=Helvetica;fontSize=12;fontColor=default;resizable=1;fillColor=default;" vertex="1" parent="M1dsXv7yGWbkJlxqNbTj-58">
          <mxGeometry x="120" width="120" height="60" as="geometry" />
        </mxCell>
        <mxCell id="M1dsXv7yGWbkJlxqNbTj-50" value="电磁感应" style="rounded=1;whiteSpace=wrap;html=1;strokeColor=default;align=center;verticalAlign=middle;fontFamily=Helvetica;fontSize=12;fontColor=default;resizable=1;fillColor=default;" vertex="1" parent="M1dsXv7yGWbkJlxqNbTj-58">
          <mxGeometry x="240" width="120" height="60" as="geometry" />
        </mxCell>
        <mxCell id="M1dsXv7yGWbkJlxqNbTj-51" value="交变电流" style="rounded=1;whiteSpace=wrap;html=1;strokeColor=default;align=center;verticalAlign=middle;fontFamily=Helvetica;fontSize=12;fontColor=default;resizable=1;fillColor=default;" vertex="1" parent="M1dsXv7yGWbkJlxqNbTj-58">
          <mxGeometry x="360" width="120" height="60" as="geometry" />
        </mxCell>
        <mxCell id="M1dsXv7yGWbkJlxqNbTj-52" value="*电磁振荡与电磁波" style="rounded=1;whiteSpace=wrap;html=1;strokeColor=default;align=center;verticalAlign=middle;fontFamily=Helvetica;fontSize=12;fontColor=default;resizable=1;fillColor=default;" vertex="1" parent="M1dsXv7yGWbkJlxqNbTj-58">
          <mxGeometry x="480" width="120" height="60" as="geometry" />
        </mxCell>
        <mxCell id="M1dsXv7yGWbkJlxqNbTj-53" value="传感器" style="rounded=1;whiteSpace=wrap;html=1;strokeColor=default;align=center;verticalAlign=middle;fontFamily=Helvetica;fontSize=12;fontColor=default;resizable=1;fillColor=default;" vertex="1" parent="M1dsXv7yGWbkJlxqNbTj-58">
          <mxGeometry x="600" width="120" height="60" as="geometry" />
        </mxCell>
        <mxCell id="M1dsXv7yGWbkJlxqNbTj-54" value="选必三" style="rounded=1;whiteSpace=wrap;html=1;strokeColor=default;align=center;verticalAlign=middle;fontFamily=Helvetica;fontSize=12;fontColor=default;resizable=1;fillColor=default;" vertex="1" parent="M1dsXv7yGWbkJlxqNbTj-58">
          <mxGeometry y="80" width="120" height="60" as="geometry" />
        </mxCell>
        <mxCell id="M1dsXv7yGWbkJlxqNbTj-55" value="分子动理论" style="rounded=1;whiteSpace=wrap;html=1;strokeColor=default;align=center;verticalAlign=middle;fontFamily=Helvetica;fontSize=12;fontColor=default;resizable=1;fillColor=default;" vertex="1" parent="M1dsXv7yGWbkJlxqNbTj-58">
          <mxGeometry x="120" y="80" width="120" height="60" as="geometry" />
        </mxCell>
        <mxCell id="M1dsXv7yGWbkJlxqNbTj-57" value="气体、固体和液体" style="rounded=1;whiteSpace=wrap;html=1;strokeColor=default;align=center;verticalAlign=middle;fontFamily=Helvetica;fontSize=12;fontColor=default;resizable=1;fillColor=default;" vertex="1" parent="M1dsXv7yGWbkJlxqNbTj-58">
          <mxGeometry x="240" y="80" width="120" height="60" as="geometry" />
        </mxCell>
        <mxCell id="M1dsXv7yGWbkJlxqNbTj-60" value="选必二" style="rounded=1;whiteSpace=wrap;html=1;strokeColor=default;align=center;verticalAlign=middle;fontFamily=Helvetica;fontSize=12;fontColor=default;resizable=1;fillColor=default;" vertex="1" parent="1">
          <mxGeometry x="2290" y="2570" width="120" height="60" as="geometry" />
        </mxCell>
        <mxCell id="M1dsXv7yGWbkJlxqNbTj-61" value="原子结构与性质" style="rounded=1;whiteSpace=wrap;html=1;strokeColor=default;align=center;verticalAlign=middle;fontFamily=Helvetica;fontSize=12;fontColor=default;resizable=1;fillColor=default;" vertex="1" parent="1">
          <mxGeometry x="2410" y="2570" width="120" height="60" as="geometry" />
        </mxCell>
        <mxCell id="M1dsXv7yGWbkJlxqNbTj-62" value="分子结构与性质" style="rounded=1;whiteSpace=wrap;html=1;strokeColor=default;align=center;verticalAlign=middle;fontFamily=Helvetica;fontSize=12;fontColor=default;resizable=1;fillColor=default;" vertex="1" parent="1">
          <mxGeometry x="2530" y="2570" width="120" height="60" as="geometry" />
        </mxCell>
        <mxCell id="M1dsXv7yGWbkJlxqNbTj-63" value="离子结构与性质" style="rounded=1;whiteSpace=wrap;html=1;strokeColor=default;align=center;verticalAlign=middle;fontFamily=Helvetica;fontSize=12;fontColor=default;resizable=1;fillColor=default;" vertex="1" parent="1">
          <mxGeometry x="2650" y="2570" width="120" height="60" as="geometry" />
        </mxCell>
        <mxCell id="M1dsXv7yGWbkJlxqNbTj-64" value="选必三" style="rounded=1;whiteSpace=wrap;html=1;strokeColor=default;align=center;verticalAlign=middle;fontFamily=Helvetica;fontSize=12;fontColor=default;resizable=1;fillColor=default;" vertex="1" parent="1">
          <mxGeometry x="2290" y="2650" width="120" height="60" as="geometry" />
        </mxCell>
        <mxCell id="M1dsXv7yGWbkJlxqNbTj-65" value="有机化合物的结构特点与研究方法" style="rounded=1;whiteSpace=wrap;html=1;strokeColor=default;align=center;verticalAlign=middle;fontFamily=Helvetica;fontSize=12;fontColor=default;resizable=1;fillColor=default;" vertex="1" parent="1">
          <mxGeometry x="2410" y="2650" width="120" height="60" as="geometry" />
        </mxCell>
        <mxCell id="M1dsXv7yGWbkJlxqNbTj-66" value="烃" style="rounded=1;whiteSpace=wrap;html=1;strokeColor=default;align=center;verticalAlign=middle;fontFamily=Helvetica;fontSize=12;fontColor=default;resizable=1;fillColor=default;" vertex="1" parent="1">
          <mxGeometry x="2530" y="2650" width="120" height="60" as="geometry" />
        </mxCell>
        <mxCell id="M1dsXv7yGWbkJlxqNbTj-67" value="烃的衍生物" style="rounded=1;whiteSpace=wrap;html=1;strokeColor=default;align=center;verticalAlign=middle;fontFamily=Helvetica;fontSize=12;fontColor=default;resizable=1;fillColor=default;" vertex="1" parent="1">
          <mxGeometry x="2650" y="2650" width="120" height="60" as="geometry" />
        </mxCell>
        <mxCell id="M1dsXv7yGWbkJlxqNbTj-75" value="" style="group" vertex="1" connectable="0" parent="1">
          <mxGeometry x="230" y="3000" width="480" height="140" as="geometry" />
        </mxCell>
        <mxCell id="M1dsXv7yGWbkJlxqNbTj-68" value="选必二" style="rounded=1;whiteSpace=wrap;html=1;strokeColor=default;align=center;verticalAlign=middle;fontFamily=Helvetica;fontSize=12;fontColor=default;resizable=1;fillColor=default;" vertex="1" parent="M1dsXv7yGWbkJlxqNbTj-75">
          <mxGeometry width="120" height="60" as="geometry" />
        </mxCell>
        <mxCell id="M1dsXv7yGWbkJlxqNbTj-69" value="数列" style="rounded=1;whiteSpace=wrap;html=1;strokeColor=default;align=center;verticalAlign=middle;fontFamily=Helvetica;fontSize=12;fontColor=default;resizable=1;fillColor=default;" vertex="1" parent="M1dsXv7yGWbkJlxqNbTj-75">
          <mxGeometry x="120" width="120" height="60" as="geometry" />
        </mxCell>
        <mxCell id="M1dsXv7yGWbkJlxqNbTj-70" value="一元函数的导数及其应用" style="rounded=1;whiteSpace=wrap;html=1;strokeColor=default;align=center;verticalAlign=middle;fontFamily=Helvetica;fontSize=12;fontColor=default;resizable=1;fillColor=default;" vertex="1" parent="M1dsXv7yGWbkJlxqNbTj-75">
          <mxGeometry x="240" width="120" height="60" as="geometry" />
        </mxCell>
        <mxCell id="M1dsXv7yGWbkJlxqNbTj-71" value="选必三" style="rounded=1;whiteSpace=wrap;html=1;strokeColor=default;align=center;verticalAlign=middle;fontFamily=Helvetica;fontSize=12;fontColor=default;resizable=1;fillColor=default;" vertex="1" parent="M1dsXv7yGWbkJlxqNbTj-75">
          <mxGeometry y="80" width="120" height="60" as="geometry" />
        </mxCell>
        <mxCell id="M1dsXv7yGWbkJlxqNbTj-72" value="计数原理" style="rounded=1;whiteSpace=wrap;html=1;strokeColor=default;align=center;verticalAlign=middle;fontFamily=Helvetica;fontSize=12;fontColor=default;resizable=1;fillColor=default;" vertex="1" parent="M1dsXv7yGWbkJlxqNbTj-75">
          <mxGeometry x="120" y="80" width="120" height="60" as="geometry" />
        </mxCell>
        <mxCell id="M1dsXv7yGWbkJlxqNbTj-73" value="随机变量及其分布" style="rounded=1;whiteSpace=wrap;html=1;strokeColor=default;align=center;verticalAlign=middle;fontFamily=Helvetica;fontSize=12;fontColor=default;resizable=1;fillColor=default;" vertex="1" parent="M1dsXv7yGWbkJlxqNbTj-75">
          <mxGeometry x="240" y="80" width="120" height="60" as="geometry" />
        </mxCell>
        <mxCell id="M1dsXv7yGWbkJlxqNbTj-74" value="成对数据的统计分析" style="rounded=1;whiteSpace=wrap;html=1;strokeColor=default;align=center;verticalAlign=middle;fontFamily=Helvetica;fontSize=12;fontColor=default;resizable=1;fillColor=default;" vertex="1" parent="M1dsXv7yGWbkJlxqNbTj-75">
          <mxGeometry x="360" y="80" width="120" height="60" as="geometry" />
        </mxCell>
        <mxCell id="M1dsXv7yGWbkJlxqNbTj-76" value="" style="group" vertex="1" connectable="0" parent="1">
          <mxGeometry x="925" y="2451" width="280" height="140" as="geometry" />
        </mxCell>
        <mxCell id="GIf5W1ypevxodKQtggny-17" value="英语" style="rounded=1;whiteSpace=wrap;html=1;" parent="M1dsXv7yGWbkJlxqNbTj-76" vertex="1">
          <mxGeometry x="160" y="80" width="120" height="60" as="geometry" />
        </mxCell>
        <mxCell id="GIf5W1ypevxodKQtggny-18" value="作文模板" style="rounded=1;whiteSpace=wrap;html=1;" parent="M1dsXv7yGWbkJlxqNbTj-76" vertex="1">
          <mxGeometry x="160" width="120" height="60" as="geometry" />
        </mxCell>
        <mxCell id="GIf5W1ypevxodKQtggny-19" value="周报" style="rounded=1;whiteSpace=wrap;html=1;" parent="M1dsXv7yGWbkJlxqNbTj-76" vertex="1">
          <mxGeometry y="80" width="120" height="60" as="geometry" />
        </mxCell>
        <mxCell id="M1dsXv7yGWbkJlxqNbTj-77" value="" style="group" vertex="1" connectable="0" parent="1">
          <mxGeometry x="925" y="2261" width="280" height="140" as="geometry" />
        </mxCell>
        <mxCell id="GIf5W1ypevxodKQtggny-14" value="数学" style="rounded=1;whiteSpace=wrap;html=1;" parent="M1dsXv7yGWbkJlxqNbTj-77" vertex="1">
          <mxGeometry x="160" y="80" width="120" height="60" as="geometry" />
        </mxCell>
        <mxCell id="GIf5W1ypevxodKQtggny-15" value="三套复习卷" style="rounded=1;whiteSpace=wrap;html=1;" parent="M1dsXv7yGWbkJlxqNbTj-77" vertex="1">
          <mxGeometry x="160" width="120" height="60" as="geometry" />
        </mxCell>
        <mxCell id="GIf5W1ypevxodKQtggny-16" value="基础" style="rounded=1;whiteSpace=wrap;html=1;" parent="M1dsXv7yGWbkJlxqNbTj-77" vertex="1">
          <mxGeometry y="80" width="120" height="60" as="geometry" />
        </mxCell>
        <mxCell id="M1dsXv7yGWbkJlxqNbTj-80" value="" style="group" vertex="1" connectable="0" parent="1">
          <mxGeometry x="2105" y="2451" width="270" height="140" as="geometry" />
        </mxCell>
        <mxCell id="GIf5W1ypevxodKQtggny-26" value="生物" style="rounded=1;whiteSpace=wrap;html=1;" parent="M1dsXv7yGWbkJlxqNbTj-80" vertex="1">
          <mxGeometry y="80" width="120" height="60" as="geometry" />
        </mxCell>
        <mxCell id="GIf5W1ypevxodKQtggny-27" value="复习卷" style="rounded=1;whiteSpace=wrap;html=1;" parent="M1dsXv7yGWbkJlxqNbTj-80" vertex="1">
          <mxGeometry width="120" height="60" as="geometry" />
        </mxCell>
        <mxCell id="GIf5W1ypevxodKQtggny-28" value="基础" style="rounded=1;whiteSpace=wrap;html=1;" parent="M1dsXv7yGWbkJlxqNbTj-80" vertex="1">
          <mxGeometry x="150" y="80" width="120" height="60" as="geometry" />
        </mxCell>
        <mxCell id="M1dsXv7yGWbkJlxqNbTj-78" value="" style="group" vertex="1" connectable="0" parent="1">
          <mxGeometry x="935" y="2091" width="930" height="380" as="geometry" />
        </mxCell>
        <mxCell id="GIf5W1ypevxodKQtggny-11" value="古诗词" style="rounded=1;whiteSpace=wrap;html=1;" parent="M1dsXv7yGWbkJlxqNbTj-78" vertex="1">
          <mxGeometry x="160" width="120" height="60" as="geometry" />
        </mxCell>
        <mxCell id="GIf5W1ypevxodKQtggny-12" value="语文" style="rounded=1;whiteSpace=wrap;html=1;" parent="M1dsXv7yGWbkJlxqNbTj-78" vertex="1">
          <mxGeometry x="160" y="80" width="120" height="60" as="geometry" />
        </mxCell>
        <mxCell id="GIf5W1ypevxodKQtggny-13" value="旧题" style="rounded=1;whiteSpace=wrap;html=1;" parent="M1dsXv7yGWbkJlxqNbTj-78" vertex="1">
          <mxGeometry y="80" width="120" height="60" as="geometry" />
        </mxCell>
        <mxCell id="M1dsXv7yGWbkJlxqNbTj-79" value="" style="group" vertex="1" connectable="0" parent="M1dsXv7yGWbkJlxqNbTj-78">
          <mxGeometry x="490" y="80" width="440" height="300" as="geometry" />
        </mxCell>
        <mxCell id="GIf5W1ypevxodKQtggny-1" value="二段考" style="rounded=1;whiteSpace=wrap;html=1;" parent="M1dsXv7yGWbkJlxqNbTj-79" vertex="1">
          <mxGeometry x="160" y="120" width="120" height="60" as="geometry" />
        </mxCell>
        <mxCell id="GIf5W1ypevxodKQtggny-3" value="语文" style="rounded=1;whiteSpace=wrap;html=1;" parent="M1dsXv7yGWbkJlxqNbTj-79" vertex="1">
          <mxGeometry width="120" height="60" as="geometry" />
        </mxCell>
        <mxCell id="GIf5W1ypevxodKQtggny-4" value="数学" style="rounded=1;whiteSpace=wrap;html=1;" parent="M1dsXv7yGWbkJlxqNbTj-79" vertex="1">
          <mxGeometry y="120" width="120" height="60" as="geometry" />
        </mxCell>
        <mxCell id="GIf5W1ypevxodKQtggny-5" value="英语" style="rounded=1;whiteSpace=wrap;html=1;" parent="M1dsXv7yGWbkJlxqNbTj-79" vertex="1">
          <mxGeometry y="240" width="120" height="60" as="geometry" />
        </mxCell>
        <mxCell id="GIf5W1ypevxodKQtggny-6" value="物理" style="rounded=1;whiteSpace=wrap;html=1;" parent="M1dsXv7yGWbkJlxqNbTj-79" vertex="1">
          <mxGeometry x="320" width="120" height="60" as="geometry" />
        </mxCell>
        <mxCell id="GIf5W1ypevxodKQtggny-8" value="生物" style="rounded=1;whiteSpace=wrap;html=1;" parent="M1dsXv7yGWbkJlxqNbTj-79" vertex="1">
          <mxGeometry x="320" y="240" width="120" height="60" as="geometry" />
        </mxCell>
        <mxCell id="GIf5W1ypevxodKQtggny-9" value="化学" style="rounded=1;whiteSpace=wrap;html=1;" parent="M1dsXv7yGWbkJlxqNbTj-79" vertex="1">
          <mxGeometry x="320" y="120" width="120" height="60" as="geometry" />
        </mxCell>
        <mxCell id="M1dsXv7yGWbkJlxqNbTj-81" value="" style="group" vertex="1" connectable="0" parent="1">
          <mxGeometry x="2105" y="2271" width="270" height="150" as="geometry" />
        </mxCell>
        <mxCell id="GIf5W1ypevxodKQtggny-23" value="化学" style="rounded=1;whiteSpace=wrap;html=1;" parent="M1dsXv7yGWbkJlxqNbTj-81" vertex="1">
          <mxGeometry y="90" width="120" height="60" as="geometry" />
        </mxCell>
        <mxCell id="GIf5W1ypevxodKQtggny-24" value="基础" style="rounded=1;whiteSpace=wrap;html=1;" parent="M1dsXv7yGWbkJlxqNbTj-81" vertex="1">
          <mxGeometry x="150" y="90" width="120" height="60" as="geometry" />
        </mxCell>
        <mxCell id="GIf5W1ypevxodKQtggny-25" value="复习卷" style="rounded=1;whiteSpace=wrap;html=1;" parent="M1dsXv7yGWbkJlxqNbTj-81" vertex="1">
          <mxGeometry width="120" height="60" as="geometry" />
        </mxCell>
        <mxCell id="M1dsXv7yGWbkJlxqNbTj-82" value="" style="group" vertex="1" connectable="0" parent="1">
          <mxGeometry x="2105" y="2091" width="270" height="140" as="geometry" />
        </mxCell>
        <mxCell id="GIf5W1ypevxodKQtggny-20" value="物理" style="rounded=1;whiteSpace=wrap;html=1;" parent="M1dsXv7yGWbkJlxqNbTj-82" vertex="1">
          <mxGeometry y="80" width="120" height="60" as="geometry" />
        </mxCell>
        <mxCell id="GIf5W1ypevxodKQtggny-21" value="三张复习卷" style="rounded=1;whiteSpace=wrap;html=1;" parent="M1dsXv7yGWbkJlxqNbTj-82" vertex="1">
          <mxGeometry width="120" height="60" as="geometry" />
        </mxCell>
        <mxCell id="GIf5W1ypevxodKQtggny-22" value="基础" style="rounded=1;whiteSpace=wrap;html=1;" parent="M1dsXv7yGWbkJlxqNbTj-82" vertex="1">
          <mxGeometry x="150" y="80" width="120" height="60" as="geometry" />
        </mxCell>
        <mxCell id="M1dsXv7yGWbkJlxqNbTj-15" value="" style="rounded=1;whiteSpace=wrap;html=1;movable=1;resizable=1;rotatable=1;deletable=1;editable=1;locked=0;connectable=1;" vertex="1" parent="1">
          <mxGeometry x="80" y="80" width="500" height="510" as="geometry" />
        </mxCell>
        <mxCell id="M1dsXv7yGWbkJlxqNbTj-1" value="氓" style="rounded=1;whiteSpace=wrap;html=1;movable=1;resizable=1;rotatable=1;deletable=1;editable=1;locked=0;connectable=1;" vertex="1" parent="1">
          <mxGeometry x="270" y="139" width="120" height="60" as="geometry" />
        </mxCell>
        <mxCell id="M1dsXv7yGWbkJlxqNbTj-2" value="离骚" style="rounded=1;whiteSpace=wrap;html=1;movable=1;resizable=1;rotatable=1;deletable=1;editable=1;locked=0;connectable=1;" vertex="1" parent="1">
          <mxGeometry x="270" y="229" width="120" height="60" as="geometry" />
        </mxCell>
        <mxCell id="M1dsXv7yGWbkJlxqNbTj-3" value="蜀道难" style="rounded=1;whiteSpace=wrap;html=1;movable=1;resizable=1;rotatable=1;deletable=1;editable=1;locked=0;connectable=1;" vertex="1" parent="1">
          <mxGeometry x="270" y="319" width="120" height="60" as="geometry" />
        </mxCell>
        <mxCell id="M1dsXv7yGWbkJlxqNbTj-4" value="蜀相" style="rounded=1;whiteSpace=wrap;html=1;movable=1;resizable=1;rotatable=1;deletable=1;editable=1;locked=0;connectable=1;" vertex="1" parent="1">
          <mxGeometry x="270" y="409" width="120" height="60" as="geometry" />
        </mxCell>
        <mxCell id="M1dsXv7yGWbkJlxqNbTj-5" value="望海潮" style="rounded=1;whiteSpace=wrap;html=1;movable=1;resizable=1;rotatable=1;deletable=1;editable=1;locked=0;connectable=1;" vertex="1" parent="1">
          <mxGeometry x="110" y="139" width="120" height="60" as="geometry" />
        </mxCell>
        <mxCell id="M1dsXv7yGWbkJlxqNbTj-6" value="扬州慢" style="rounded=1;whiteSpace=wrap;html=1;movable=1;resizable=1;rotatable=1;deletable=1;editable=1;locked=0;connectable=1;" vertex="1" parent="1">
          <mxGeometry x="110" y="229" width="120" height="60" as="geometry" />
        </mxCell>
        <mxCell id="M1dsXv7yGWbkJlxqNbTj-7" value="陈情表" style="rounded=1;whiteSpace=wrap;html=1;movable=1;resizable=1;rotatable=1;deletable=1;editable=1;locked=0;connectable=1;" vertex="1" parent="1">
          <mxGeometry x="110" y="319" width="120" height="60" as="geometry" />
        </mxCell>
        <mxCell id="M1dsXv7yGWbkJlxqNbTj-8" value="归去来兮辞" style="rounded=1;whiteSpace=wrap;html=1;movable=1;resizable=1;rotatable=1;deletable=1;editable=1;locked=0;connectable=1;" vertex="1" parent="1">
          <mxGeometry x="110" y="409" width="120" height="60" as="geometry" />
        </mxCell>
        <mxCell id="M1dsXv7yGWbkJlxqNbTj-9" value="石钟山记" style="rounded=1;whiteSpace=wrap;html=1;movable=1;resizable=1;rotatable=1;deletable=1;editable=1;locked=0;connectable=1;" vertex="1" parent="1">
          <mxGeometry x="430" y="139" width="120" height="60" as="geometry" />
        </mxCell>
        <mxCell id="M1dsXv7yGWbkJlxqNbTj-10" value="拟行路难" style="rounded=1;whiteSpace=wrap;html=1;movable=1;resizable=1;rotatable=1;deletable=1;editable=1;locked=0;connectable=1;" vertex="1" parent="1">
          <mxGeometry x="430" y="229" width="120" height="60" as="geometry" />
        </mxCell>
        <mxCell id="M1dsXv7yGWbkJlxqNbTj-11" value="客至" style="rounded=1;whiteSpace=wrap;html=1;movable=1;resizable=1;rotatable=1;deletable=1;editable=1;locked=0;connectable=1;" vertex="1" parent="1">
          <mxGeometry x="430" y="319" width="120" height="60" as="geometry" />
        </mxCell>
        <mxCell id="M1dsXv7yGWbkJlxqNbTj-12" value="登快阁" style="rounded=1;whiteSpace=wrap;html=1;movable=1;resizable=1;rotatable=1;deletable=1;editable=1;locked=0;connectable=1;" vertex="1" parent="1">
          <mxGeometry x="430" y="409" width="120" height="60" as="geometry" />
        </mxCell>
        <mxCell id="M1dsXv7yGWbkJlxqNbTj-13" value="临安春雨初霁" style="rounded=1;whiteSpace=wrap;html=1;movable=1;resizable=1;rotatable=1;deletable=1;editable=1;locked=0;connectable=1;" vertex="1" parent="1">
          <mxGeometry x="270" y="499" width="120" height="60" as="geometry" />
        </mxCell>
        <mxCell id="M1dsXv7yGWbkJlxqNbTj-94" value="" style="group" vertex="1" connectable="0" parent="1">
          <mxGeometry x="770" y="80" width="685" height="530" as="geometry" />
        </mxCell>
        <mxCell id="M1dsXv7yGWbkJlxqNbTj-86" value="" style="group" vertex="1" connectable="0" parent="M1dsXv7yGWbkJlxqNbTj-94">
          <mxGeometry width="360" height="60" as="geometry" />
        </mxCell>
        <mxCell id="M1dsXv7yGWbkJlxqNbTj-83" value="应用文" style="rounded=1;whiteSpace=wrap;html=1;strokeColor=default;align=center;verticalAlign=middle;fontFamily=Helvetica;fontSize=12;fontColor=default;resizable=1;fillColor=default;" vertex="1" parent="M1dsXv7yGWbkJlxqNbTj-86">
          <mxGeometry width="120" height="60" as="geometry" />
        </mxCell>
        <mxCell id="M1dsXv7yGWbkJlxqNbTj-84" value="通知" style="rounded=1;whiteSpace=wrap;html=1;strokeColor=default;align=center;verticalAlign=middle;fontFamily=Helvetica;fontSize=12;fontColor=default;resizable=1;fillColor=default;" vertex="1" parent="M1dsXv7yGWbkJlxqNbTj-86">
          <mxGeometry x="120" width="120" height="60" as="geometry" />
        </mxCell>
        <mxCell id="M1dsXv7yGWbkJlxqNbTj-85" value="倡议书" style="rounded=1;whiteSpace=wrap;html=1;strokeColor=default;align=center;verticalAlign=middle;fontFamily=Helvetica;fontSize=12;fontColor=default;resizable=1;fillColor=default;" vertex="1" parent="M1dsXv7yGWbkJlxqNbTj-86">
          <mxGeometry x="240" width="120" height="60" as="geometry" />
        </mxCell>
        <mxCell id="M1dsXv7yGWbkJlxqNbTj-88" value="&lt;div style=&quot;text-align: center;&quot;&gt;Notice&lt;/div&gt;&lt;div&gt;&amp;nbsp; &amp;nbsp; &amp;nbsp; We are thrilled to announce that [what(themed what)] is approaching.&amp;nbsp;&lt;/div&gt;&lt;div&gt;&amp;nbsp; &amp;nbsp; &amp;nbsp; Scheduled to take place [when(on date at time)] in the (where), this activity invites you to (do what)&amp;nbsp;&lt;/div&gt;&lt;div&gt;&amp;nbsp; &amp;nbsp; &amp;nbsp; Whether you’re a seasoned () or (), it will undoubtedly be a fantastic chance to (gain what).&lt;/div&gt;&lt;div&gt;　&amp;nbsp; We eagerly await your active participation.&amp;nbsp;&lt;/div&gt;&lt;div style=&quot;text-align: right;&quot;&gt;　(whom)&lt;/div&gt;&lt;div&gt;&lt;br&gt;&lt;/div&gt;" style="rounded=1;whiteSpace=wrap;html=1;strokeColor=default;align=left;verticalAlign=middle;fontFamily=Helvetica;fontSize=12;fontColor=default;resizable=1;fillColor=default;" vertex="1" parent="M1dsXv7yGWbkJlxqNbTj-94">
          <mxGeometry y="80" width="340" height="210" as="geometry" />
        </mxCell>
        <mxCell id="M1dsXv7yGWbkJlxqNbTj-89" value="&lt;div style=&quot;&quot;&gt;&lt;div style=&quot;text-align: center;&quot;&gt;Notice&lt;/div&gt;&lt;div&gt;&amp;nbsp; &amp;nbsp; &amp;nbsp; We are thrilled to announce that an English speech competition themed on “Hand in Hand: Building a Bridge to Peace” is approaching.&amp;nbsp;&lt;/div&gt;&lt;div&gt;&amp;nbsp; &amp;nbsp; &amp;nbsp; Scheduled to take place on January 16 at 3 pm in the Student Activity Center, this contest invites you to share your thoughts on the power of peace and the significance of collective efforts in securing a peaceful environment for all.&amp;nbsp;&lt;/div&gt;&lt;div&gt;&amp;nbsp; &amp;nbsp; &amp;nbsp; Whether you’re a seasoned speechmaker or new to public speaking, it will undoubtedly be a fantastic chance to express your ideas and make your voice heard.&lt;/div&gt;&lt;div&gt;　&amp;nbsp; We eagerly await your active participation.&amp;nbsp;&lt;/div&gt;&lt;div style=&quot;text-align: right;&quot;&gt;　The Student Union&lt;/div&gt;&lt;div&gt;&lt;br&gt;&lt;/div&gt;&lt;/div&gt;" style="rounded=1;whiteSpace=wrap;html=1;strokeColor=default;align=left;verticalAlign=middle;fontFamily=Helvetica;fontSize=12;fontColor=default;resizable=1;fillColor=default;" vertex="1" parent="M1dsXv7yGWbkJlxqNbTj-94">
          <mxGeometry x="340" y="80" width="340" height="210" as="geometry" />
        </mxCell>
        <mxCell id="M1dsXv7yGWbkJlxqNbTj-90" value="&lt;div&gt;&lt;br&gt;&lt;/div&gt;&lt;div style=&quot;text-align: left;&quot;&gt;Dear teachers and students,&lt;/div&gt;&lt;div style=&quot;text-align: left;&quot;&gt;&amp;nbsp; &amp;nbsp; In response to (why), (who) is launching (what(titled what)), aiming to (do what)&lt;/div&gt;&lt;div style=&quot;text-align: left;&quot;&gt;&amp;nbsp; &amp;nbsp;To achieve this, we should do as follows. Firstly, we should (do what). Moreover, it is urged that we (do what). Lastly, we should place importance on (do what). These small actions, when multiplied, can have a significant impact.&lt;/div&gt;&lt;div style=&quot;text-align: right;&quot;&gt;&amp;nbsp; &amp;nbsp;Let’s take action and build a greener future.&amp;nbsp; &amp;nbsp; &amp;nbsp; &amp;nbsp; &amp;nbsp; &amp;nbsp; &amp;nbsp; &amp;nbsp; &amp;nbsp; &amp;nbsp; &amp;nbsp; &amp;nbsp; &amp;nbsp; &amp;nbsp; &amp;nbsp; &amp;nbsp; &amp;nbsp; &amp;nbsp; &amp;nbsp; &amp;nbsp; &amp;nbsp; &amp;nbsp; &amp;nbsp; &amp;nbsp;(whom)&lt;/div&gt;&lt;div style=&quot;text-align: right;&quot;&gt;&lt;br&gt;&lt;/div&gt;" style="rounded=1;whiteSpace=wrap;html=1;strokeColor=default;align=center;verticalAlign=middle;fontFamily=Helvetica;fontSize=12;fontColor=default;resizable=1;fillColor=default;" vertex="1" parent="M1dsXv7yGWbkJlxqNbTj-94">
          <mxGeometry x="5" y="320" width="340" height="210" as="geometry" />
        </mxCell>
        <mxCell id="M1dsXv7yGWbkJlxqNbTj-93" value="&lt;div&gt;&lt;br&gt;&lt;/div&gt;&lt;div&gt;Dear teachers and students,&lt;/div&gt;&lt;div style=&quot;text-align: left;&quot;&gt;&amp;nbsp; &amp;nbsp; In response to the growing threat of climate change, our school is launching a campaign titled &quot;Low-Carbon Life, Green Future&quot;, aiming to protect the environment and ensure a sustainable future for all.&lt;/div&gt;&lt;div style=&quot;text-align: left;&quot;&gt;&amp;nbsp; &amp;nbsp;To achieve this, we should do as follows. Firstly, we should choose green travel options like walking or public transport. Moreover, it is urged that we save energy by turning off unused lights and appliances. Lastly, we should place importance on reducing waste by recycling and avoiding single-use plastics. These small actions, when multiplied, can have a significant impact.&lt;/div&gt;&lt;div style=&quot;text-align: right;&quot;&gt;&amp;nbsp; &amp;nbsp;Let’s take action and build a greener future.&amp;nbsp; &amp;nbsp; &amp;nbsp; &amp;nbsp; &amp;nbsp; &amp;nbsp; &amp;nbsp; &amp;nbsp; &amp;nbsp; &amp;nbsp; &amp;nbsp; &amp;nbsp; &amp;nbsp; &amp;nbsp; &amp;nbsp; &amp;nbsp; &amp;nbsp; &amp;nbsp; &amp;nbsp; &amp;nbsp; &amp;nbsp; &amp;nbsp; &amp;nbsp; &amp;nbsp; &amp;nbsp; &amp;nbsp; &amp;nbsp; &amp;nbsp; &amp;nbsp; &amp;nbsp; &amp;nbsp; &amp;nbsp; &amp;nbsp; &amp;nbsp; &amp;nbsp; &amp;nbsp;&amp;nbsp;&lt;span style=&quot;background-color: transparent; color: light-dark(rgb(0, 0, 0), rgb(255, 255, 255));&quot;&gt;&amp;nbsp;Li Hua&lt;/span&gt;&lt;/div&gt;&lt;div style=&quot;text-align: right;&quot;&gt;&lt;br&gt;&lt;/div&gt;" style="rounded=1;whiteSpace=wrap;html=1;strokeColor=default;align=center;verticalAlign=middle;fontFamily=Helvetica;fontSize=12;fontColor=default;resizable=1;fillColor=default;" vertex="1" parent="M1dsXv7yGWbkJlxqNbTj-94">
          <mxGeometry x="345" y="320" width="340" height="210" as="geometry" />
        </mxCell>
        <mxCell id="M1dsXv7yGWbkJlxqNbTj-130" value="" style="group" vertex="1" connectable="0" parent="1">
          <mxGeometry x="1580" y="499" width="600" height="60" as="geometry" />
        </mxCell>
        <mxCell id="M1dsXv7yGWbkJlxqNbTj-125" value="*细胞能量的供应和利用" style="rounded=1;whiteSpace=wrap;html=1;strokeColor=default;align=center;verticalAlign=middle;fontFamily=Helvetica;fontSize=12;fontColor=default;resizable=1;fillColor=default;" vertex="1" parent="M1dsXv7yGWbkJlxqNbTj-130">
          <mxGeometry width="120" height="60" as="geometry" />
        </mxCell>
        <mxCell id="M1dsXv7yGWbkJlxqNbTj-126" value="降低化学反应活化能的酶" style="rounded=1;whiteSpace=wrap;html=1;strokeColor=default;align=center;verticalAlign=middle;fontFamily=Helvetica;fontSize=12;fontColor=default;resizable=1;fillColor=default;" vertex="1" parent="M1dsXv7yGWbkJlxqNbTj-130">
          <mxGeometry x="120" width="120" height="60" as="geometry" />
        </mxCell>
        <mxCell id="M1dsXv7yGWbkJlxqNbTj-127" value="ATP" style="rounded=1;whiteSpace=wrap;html=1;strokeColor=default;align=center;verticalAlign=middle;fontFamily=Helvetica;fontSize=12;fontColor=default;resizable=1;fillColor=default;" vertex="1" parent="M1dsXv7yGWbkJlxqNbTj-130">
          <mxGeometry x="240" width="120" height="60" as="geometry" />
        </mxCell>
        <mxCell id="M1dsXv7yGWbkJlxqNbTj-128" value="细胞呼吸" style="rounded=1;whiteSpace=wrap;html=1;strokeColor=default;align=center;verticalAlign=middle;fontFamily=Helvetica;fontSize=12;fontColor=default;resizable=1;fillColor=default;" vertex="1" parent="M1dsXv7yGWbkJlxqNbTj-130">
          <mxGeometry x="360" width="120" height="60" as="geometry" />
        </mxCell>
        <mxCell id="M1dsXv7yGWbkJlxqNbTj-129" value="光合作用" style="rounded=1;whiteSpace=wrap;html=1;strokeColor=default;align=center;verticalAlign=middle;fontFamily=Helvetica;fontSize=12;fontColor=default;resizable=1;fillColor=default;" vertex="1" parent="M1dsXv7yGWbkJlxqNbTj-130">
          <mxGeometry x="480" width="120" height="60" as="geometry" />
        </mxCell>
        <mxCell id="M1dsXv7yGWbkJlxqNbTj-138" value="" style="group" vertex="1" connectable="0" parent="1">
          <mxGeometry x="1580" y="580" width="840" height="60" as="geometry" />
        </mxCell>
        <mxCell id="M1dsXv7yGWbkJlxqNbTj-131" value="分离定律" style="rounded=1;whiteSpace=wrap;html=1;strokeColor=default;align=center;verticalAlign=middle;fontFamily=Helvetica;fontSize=12;fontColor=default;resizable=1;fillColor=default;" vertex="1" parent="M1dsXv7yGWbkJlxqNbTj-138">
          <mxGeometry width="120" height="60" as="geometry" />
        </mxCell>
        <mxCell id="M1dsXv7yGWbkJlxqNbTj-132" value="自由组合定律" style="rounded=1;whiteSpace=wrap;html=1;strokeColor=default;align=center;verticalAlign=middle;fontFamily=Helvetica;fontSize=12;fontColor=default;resizable=1;fillColor=default;" vertex="1" parent="M1dsXv7yGWbkJlxqNbTj-138">
          <mxGeometry x="120" width="120" height="60" as="geometry" />
        </mxCell>
        <mxCell id="M1dsXv7yGWbkJlxqNbTj-133" value="假说-演绎法" style="rounded=1;whiteSpace=wrap;html=1;strokeColor=default;align=center;verticalAlign=middle;fontFamily=Helvetica;fontSize=12;fontColor=default;resizable=1;fillColor=default;" vertex="1" parent="M1dsXv7yGWbkJlxqNbTj-138">
          <mxGeometry x="240" width="120" height="60" as="geometry" />
        </mxCell>
        <mxCell id="M1dsXv7yGWbkJlxqNbTj-134" value="减数分裂" style="rounded=1;whiteSpace=wrap;html=1;strokeColor=default;align=center;verticalAlign=middle;fontFamily=Helvetica;fontSize=12;fontColor=default;resizable=1;fillColor=default;" vertex="1" parent="M1dsXv7yGWbkJlxqNbTj-138">
          <mxGeometry x="360" width="120" height="60" as="geometry" />
        </mxCell>
        <mxCell id="M1dsXv7yGWbkJlxqNbTj-135" value="受精作用" style="rounded=1;whiteSpace=wrap;html=1;strokeColor=default;align=center;verticalAlign=middle;fontFamily=Helvetica;fontSize=12;fontColor=default;resizable=1;fillColor=default;" vertex="1" parent="M1dsXv7yGWbkJlxqNbTj-138">
          <mxGeometry x="480" width="120" height="60" as="geometry" />
        </mxCell>
        <mxCell id="M1dsXv7yGWbkJlxqNbTj-136" value="基因在染色体上" style="rounded=1;whiteSpace=wrap;html=1;strokeColor=default;align=center;verticalAlign=middle;fontFamily=Helvetica;fontSize=12;fontColor=default;resizable=1;fillColor=default;" vertex="1" parent="M1dsXv7yGWbkJlxqNbTj-138">
          <mxGeometry x="600" width="120" height="60" as="geometry" />
        </mxCell>
        <mxCell id="M1dsXv7yGWbkJlxqNbTj-137" value="伴性遗传" style="rounded=1;whiteSpace=wrap;html=1;strokeColor=default;align=center;verticalAlign=middle;fontFamily=Helvetica;fontSize=12;fontColor=default;resizable=1;fillColor=default;" vertex="1" parent="M1dsXv7yGWbkJlxqNbTj-138">
          <mxGeometry x="720" width="120" height="60" as="geometry" />
        </mxCell>
        <mxCell id="M1dsXv7yGWbkJlxqNbTj-156" value="" style="group" vertex="1" connectable="0" parent="1">
          <mxGeometry x="1580" y="660" width="600" height="300" as="geometry" />
        </mxCell>
        <mxCell id="M1dsXv7yGWbkJlxqNbTj-139" value="稳态定义" style="rounded=1;whiteSpace=wrap;html=1;strokeColor=default;align=center;verticalAlign=middle;fontFamily=Helvetica;fontSize=12;fontColor=default;resizable=1;fillColor=default;" vertex="1" parent="M1dsXv7yGWbkJlxqNbTj-156">
          <mxGeometry width="120" height="60" as="geometry" />
        </mxCell>
        <mxCell id="M1dsXv7yGWbkJlxqNbTj-140" value="稳态影响因素" style="rounded=1;whiteSpace=wrap;html=1;strokeColor=default;align=center;verticalAlign=middle;fontFamily=Helvetica;fontSize=12;fontColor=default;resizable=1;fillColor=default;" vertex="1" parent="M1dsXv7yGWbkJlxqNbTj-156">
          <mxGeometry x="120" width="120" height="60" as="geometry" />
        </mxCell>
        <mxCell id="M1dsXv7yGWbkJlxqNbTj-141" value="结构基础" style="rounded=1;whiteSpace=wrap;html=1;strokeColor=default;align=center;verticalAlign=middle;fontFamily=Helvetica;fontSize=12;fontColor=default;resizable=1;fillColor=default;" vertex="1" parent="M1dsXv7yGWbkJlxqNbTj-156">
          <mxGeometry y="60" width="120" height="60" as="geometry" />
        </mxCell>
        <mxCell id="M1dsXv7yGWbkJlxqNbTj-142" value="基本方式" style="rounded=1;whiteSpace=wrap;html=1;strokeColor=default;align=center;verticalAlign=middle;fontFamily=Helvetica;fontSize=12;fontColor=default;resizable=1;fillColor=default;" vertex="1" parent="M1dsXv7yGWbkJlxqNbTj-156">
          <mxGeometry x="120" y="60" width="120" height="60" as="geometry" />
        </mxCell>
        <mxCell id="M1dsXv7yGWbkJlxqNbTj-143" value="产生与传导" style="rounded=1;whiteSpace=wrap;html=1;strokeColor=default;align=center;verticalAlign=middle;fontFamily=Helvetica;fontSize=12;fontColor=default;resizable=1;fillColor=default;" vertex="1" parent="M1dsXv7yGWbkJlxqNbTj-156">
          <mxGeometry x="240" y="60" width="120" height="60" as="geometry" />
        </mxCell>
        <mxCell id="M1dsXv7yGWbkJlxqNbTj-144" value="分级调节" style="rounded=1;whiteSpace=wrap;html=1;strokeColor=default;align=center;verticalAlign=middle;fontFamily=Helvetica;fontSize=12;fontColor=default;resizable=1;fillColor=default;" vertex="1" parent="M1dsXv7yGWbkJlxqNbTj-156">
          <mxGeometry x="360" y="60" width="120" height="60" as="geometry" />
        </mxCell>
        <mxCell id="M1dsXv7yGWbkJlxqNbTj-145" value="人脑高级功能" style="rounded=1;whiteSpace=wrap;html=1;strokeColor=default;align=center;verticalAlign=middle;fontFamily=Helvetica;fontSize=12;fontColor=default;resizable=1;fillColor=default;" vertex="1" parent="M1dsXv7yGWbkJlxqNbTj-156">
          <mxGeometry x="480" y="60" width="120" height="60" as="geometry" />
        </mxCell>
        <mxCell id="M1dsXv7yGWbkJlxqNbTj-146" value="激素与内分泌系统" style="rounded=1;whiteSpace=wrap;html=1;strokeColor=default;align=center;verticalAlign=middle;fontFamily=Helvetica;fontSize=12;fontColor=default;resizable=1;fillColor=default;" vertex="1" parent="M1dsXv7yGWbkJlxqNbTj-156">
          <mxGeometry y="120" width="120" height="60" as="geometry" />
        </mxCell>
        <mxCell id="M1dsXv7yGWbkJlxqNbTj-147" value="调节过程" style="rounded=1;whiteSpace=wrap;html=1;strokeColor=default;align=center;verticalAlign=middle;fontFamily=Helvetica;fontSize=12;fontColor=default;resizable=1;fillColor=default;" vertex="1" parent="M1dsXv7yGWbkJlxqNbTj-156">
          <mxGeometry x="120" y="120" width="120" height="60" as="geometry" />
        </mxCell>
        <mxCell id="M1dsXv7yGWbkJlxqNbTj-148" value="与神经调节的关系" style="rounded=1;whiteSpace=wrap;html=1;strokeColor=default;align=center;verticalAlign=middle;fontFamily=Helvetica;fontSize=12;fontColor=default;resizable=1;fillColor=default;" vertex="1" parent="M1dsXv7yGWbkJlxqNbTj-156">
          <mxGeometry x="240" y="120" width="120" height="60" as="geometry" />
        </mxCell>
        <mxCell id="M1dsXv7yGWbkJlxqNbTj-149" value="组成与功能" style="rounded=1;whiteSpace=wrap;html=1;strokeColor=default;align=center;verticalAlign=middle;fontFamily=Helvetica;fontSize=12;fontColor=default;resizable=1;fillColor=default;" vertex="1" parent="M1dsXv7yGWbkJlxqNbTj-156">
          <mxGeometry y="180" width="120" height="60" as="geometry" />
        </mxCell>
        <mxCell id="M1dsXv7yGWbkJlxqNbTj-150" value="特异性免疫" style="rounded=1;whiteSpace=wrap;html=1;strokeColor=default;align=center;verticalAlign=middle;fontFamily=Helvetica;fontSize=12;fontColor=default;resizable=1;fillColor=default;" vertex="1" parent="M1dsXv7yGWbkJlxqNbTj-156">
          <mxGeometry x="120" y="180" width="120" height="60" as="geometry" />
        </mxCell>
        <mxCell id="M1dsXv7yGWbkJlxqNbTj-151" value="免疫失调" style="rounded=1;whiteSpace=wrap;html=1;strokeColor=default;align=center;verticalAlign=middle;fontFamily=Helvetica;fontSize=12;fontColor=default;resizable=1;fillColor=default;" vertex="1" parent="M1dsXv7yGWbkJlxqNbTj-156">
          <mxGeometry x="240" y="180" width="120" height="60" as="geometry" />
        </mxCell>
        <mxCell id="M1dsXv7yGWbkJlxqNbTj-152" value="免疫学应用" style="rounded=1;whiteSpace=wrap;html=1;strokeColor=default;align=center;verticalAlign=middle;fontFamily=Helvetica;fontSize=12;fontColor=default;resizable=1;fillColor=default;" vertex="1" parent="M1dsXv7yGWbkJlxqNbTj-156">
          <mxGeometry x="360" y="180" width="120" height="60" as="geometry" />
        </mxCell>
        <mxCell id="M1dsXv7yGWbkJlxqNbTj-153" value="六大植物激素" style="rounded=1;whiteSpace=wrap;html=1;strokeColor=default;align=center;verticalAlign=middle;fontFamily=Helvetica;fontSize=12;fontColor=default;resizable=1;fillColor=default;" vertex="1" parent="M1dsXv7yGWbkJlxqNbTj-156">
          <mxGeometry y="240" width="120" height="60" as="geometry" />
        </mxCell>
        <mxCell id="M1dsXv7yGWbkJlxqNbTj-154" value="植物生长调节剂" style="rounded=1;whiteSpace=wrap;html=1;strokeColor=default;align=center;verticalAlign=middle;fontFamily=Helvetica;fontSize=12;fontColor=default;resizable=1;fillColor=default;" vertex="1" parent="M1dsXv7yGWbkJlxqNbTj-156">
          <mxGeometry x="120" y="240" width="120" height="60" as="geometry" />
        </mxCell>
        <mxCell id="M1dsXv7yGWbkJlxqNbTj-155" value="环境因素" style="rounded=1;whiteSpace=wrap;html=1;strokeColor=default;align=center;verticalAlign=middle;fontFamily=Helvetica;fontSize=12;fontColor=default;resizable=1;fillColor=default;" vertex="1" parent="M1dsXv7yGWbkJlxqNbTj-156">
          <mxGeometry x="240" y="240" width="120" height="60" as="geometry" />
        </mxCell>
        <mxCell id="M1dsXv7yGWbkJlxqNbTj-171" value="" style="group" vertex="1" connectable="0" parent="1">
          <mxGeometry x="1580" y="980" width="600" height="240" as="geometry" />
        </mxCell>
        <mxCell id="M1dsXv7yGWbkJlxqNbTj-157" value="种群密度" style="rounded=1;whiteSpace=wrap;html=1;strokeColor=default;align=center;verticalAlign=middle;fontFamily=Helvetica;fontSize=12;fontColor=default;resizable=1;fillColor=default;" vertex="1" parent="M1dsXv7yGWbkJlxqNbTj-171">
          <mxGeometry width="120" height="60" as="geometry" />
        </mxCell>
        <mxCell id="M1dsXv7yGWbkJlxqNbTj-158" value="数量变化&lt;div&gt;（环境容载量）&lt;/div&gt;" style="rounded=1;whiteSpace=wrap;html=1;strokeColor=default;align=center;verticalAlign=middle;fontFamily=Helvetica;fontSize=12;fontColor=default;resizable=1;fillColor=default;" vertex="1" parent="M1dsXv7yGWbkJlxqNbTj-171">
          <mxGeometry x="120" width="120" height="60" as="geometry" />
        </mxCell>
        <mxCell id="M1dsXv7yGWbkJlxqNbTj-159" value="影响因素" style="rounded=1;whiteSpace=wrap;html=1;strokeColor=default;align=center;verticalAlign=middle;fontFamily=Helvetica;fontSize=12;fontColor=default;resizable=1;fillColor=default;" vertex="1" parent="M1dsXv7yGWbkJlxqNbTj-171">
          <mxGeometry x="240" width="120" height="60" as="geometry" />
        </mxCell>
        <mxCell id="M1dsXv7yGWbkJlxqNbTj-160" value="群落结构" style="rounded=1;whiteSpace=wrap;html=1;strokeColor=default;align=center;verticalAlign=middle;fontFamily=Helvetica;fontSize=12;fontColor=default;resizable=1;fillColor=default;" vertex="1" parent="M1dsXv7yGWbkJlxqNbTj-171">
          <mxGeometry y="60" width="120" height="60" as="geometry" />
        </mxCell>
        <mxCell id="M1dsXv7yGWbkJlxqNbTj-161" value="群落类型" style="rounded=1;whiteSpace=wrap;html=1;strokeColor=default;align=center;verticalAlign=middle;fontFamily=Helvetica;fontSize=12;fontColor=default;resizable=1;fillColor=default;" vertex="1" parent="M1dsXv7yGWbkJlxqNbTj-171">
          <mxGeometry x="120" y="60" width="120" height="60" as="geometry" />
        </mxCell>
        <mxCell id="M1dsXv7yGWbkJlxqNbTj-162" value="群落演替" style="rounded=1;whiteSpace=wrap;html=1;strokeColor=default;align=center;verticalAlign=middle;fontFamily=Helvetica;fontSize=12;fontColor=default;resizable=1;fillColor=default;" vertex="1" parent="M1dsXv7yGWbkJlxqNbTj-171">
          <mxGeometry x="240" y="60" width="120" height="60" as="geometry" />
        </mxCell>
        <mxCell id="M1dsXv7yGWbkJlxqNbTj-163" value="系统结构" style="rounded=1;whiteSpace=wrap;html=1;strokeColor=default;align=center;verticalAlign=middle;fontFamily=Helvetica;fontSize=12;fontColor=default;resizable=1;fillColor=default;" vertex="1" parent="M1dsXv7yGWbkJlxqNbTj-171">
          <mxGeometry y="120" width="120" height="60" as="geometry" />
        </mxCell>
        <mxCell id="M1dsXv7yGWbkJlxqNbTj-164" value="能量流动" style="rounded=1;whiteSpace=wrap;html=1;strokeColor=default;align=center;verticalAlign=middle;fontFamily=Helvetica;fontSize=12;fontColor=default;resizable=1;fillColor=default;" vertex="1" parent="M1dsXv7yGWbkJlxqNbTj-171">
          <mxGeometry x="120" y="120" width="120" height="60" as="geometry" />
        </mxCell>
        <mxCell id="M1dsXv7yGWbkJlxqNbTj-165" value="物质循环" style="rounded=1;whiteSpace=wrap;html=1;strokeColor=default;align=center;verticalAlign=middle;fontFamily=Helvetica;fontSize=12;fontColor=default;resizable=1;fillColor=default;" vertex="1" parent="M1dsXv7yGWbkJlxqNbTj-171">
          <mxGeometry x="240" y="120" width="120" height="60" as="geometry" />
        </mxCell>
        <mxCell id="M1dsXv7yGWbkJlxqNbTj-166" value="信息传递" style="rounded=1;whiteSpace=wrap;html=1;strokeColor=default;align=center;verticalAlign=middle;fontFamily=Helvetica;fontSize=12;fontColor=default;resizable=1;fillColor=default;" vertex="1" parent="M1dsXv7yGWbkJlxqNbTj-171">
          <mxGeometry x="360" y="120" width="120" height="60" as="geometry" />
        </mxCell>
        <mxCell id="M1dsXv7yGWbkJlxqNbTj-167" value="稳定性" style="rounded=1;whiteSpace=wrap;html=1;strokeColor=default;align=center;verticalAlign=middle;fontFamily=Helvetica;fontSize=12;fontColor=default;resizable=1;fillColor=default;" vertex="1" parent="M1dsXv7yGWbkJlxqNbTj-171">
          <mxGeometry x="480" y="120" width="120" height="60" as="geometry" />
        </mxCell>
        <mxCell id="M1dsXv7yGWbkJlxqNbTj-168" value="生态工程" style="rounded=1;whiteSpace=wrap;html=1;strokeColor=default;align=center;verticalAlign=middle;fontFamily=Helvetica;fontSize=12;fontColor=default;resizable=1;fillColor=default;" vertex="1" parent="M1dsXv7yGWbkJlxqNbTj-171">
          <mxGeometry x="240" y="180" width="120" height="60" as="geometry" />
        </mxCell>
        <mxCell id="M1dsXv7yGWbkJlxqNbTj-169" value="生物多样性" style="rounded=1;whiteSpace=wrap;html=1;strokeColor=default;align=center;verticalAlign=middle;fontFamily=Helvetica;fontSize=12;fontColor=default;resizable=1;fillColor=default;" vertex="1" parent="M1dsXv7yGWbkJlxqNbTj-171">
          <mxGeometry x="120" y="180" width="120" height="60" as="geometry" />
        </mxCell>
        <mxCell id="M1dsXv7yGWbkJlxqNbTj-170" value="生态问题" style="rounded=1;whiteSpace=wrap;html=1;strokeColor=default;align=center;verticalAlign=middle;fontFamily=Helvetica;fontSize=12;fontColor=default;resizable=1;fillColor=default;" vertex="1" parent="M1dsXv7yGWbkJlxqNbTj-171">
          <mxGeometry y="180" width="120" height="60" as="geometry" />
        </mxCell>
        <mxCell id="M1dsXv7yGWbkJlxqNbTj-179" value="" style="group" vertex="1" connectable="0" parent="1">
          <mxGeometry x="1580" y="1240" width="360" height="180" as="geometry" />
        </mxCell>
        <mxCell id="M1dsXv7yGWbkJlxqNbTj-172" value="果酒果醋泡菜腐乳" style="rounded=1;whiteSpace=wrap;html=1;strokeColor=default;align=center;verticalAlign=middle;fontFamily=Helvetica;fontSize=12;fontColor=default;resizable=1;fillColor=default;" vertex="1" parent="M1dsXv7yGWbkJlxqNbTj-179">
          <mxGeometry width="120" height="60" as="geometry" />
        </mxCell>
        <mxCell id="M1dsXv7yGWbkJlxqNbTj-173" value="培养与计数" style="rounded=1;whiteSpace=wrap;html=1;strokeColor=default;align=center;verticalAlign=middle;fontFamily=Helvetica;fontSize=12;fontColor=default;resizable=1;fillColor=default;" vertex="1" parent="M1dsXv7yGWbkJlxqNbTj-179">
          <mxGeometry x="120" width="120" height="60" as="geometry" />
        </mxCell>
        <mxCell id="M1dsXv7yGWbkJlxqNbTj-174" value="发酵工程" style="rounded=1;whiteSpace=wrap;html=1;strokeColor=default;align=center;verticalAlign=middle;fontFamily=Helvetica;fontSize=12;fontColor=default;resizable=1;fillColor=default;" vertex="1" parent="M1dsXv7yGWbkJlxqNbTj-179">
          <mxGeometry x="240" width="120" height="60" as="geometry" />
        </mxCell>
        <mxCell id="M1dsXv7yGWbkJlxqNbTj-175" value="植物细胞工程" style="rounded=1;whiteSpace=wrap;html=1;strokeColor=default;align=center;verticalAlign=middle;fontFamily=Helvetica;fontSize=12;fontColor=default;resizable=1;fillColor=default;" vertex="1" parent="M1dsXv7yGWbkJlxqNbTj-179">
          <mxGeometry y="60" width="120" height="60" as="geometry" />
        </mxCell>
        <mxCell id="M1dsXv7yGWbkJlxqNbTj-176" value="动物细胞工程" style="rounded=1;whiteSpace=wrap;html=1;strokeColor=default;align=center;verticalAlign=middle;fontFamily=Helvetica;fontSize=12;fontColor=default;resizable=1;fillColor=default;" vertex="1" parent="M1dsXv7yGWbkJlxqNbTj-179">
          <mxGeometry x="120" y="60" width="120" height="60" as="geometry" />
        </mxCell>
        <mxCell id="M1dsXv7yGWbkJlxqNbTj-177" value="胚胎工程" style="rounded=1;whiteSpace=wrap;html=1;strokeColor=default;align=center;verticalAlign=middle;fontFamily=Helvetica;fontSize=12;fontColor=default;resizable=1;fillColor=default;" vertex="1" parent="M1dsXv7yGWbkJlxqNbTj-179">
          <mxGeometry x="240" y="60" width="120" height="60" as="geometry" />
        </mxCell>
        <mxCell id="M1dsXv7yGWbkJlxqNbTj-178" value="重组DNA的基本工具" style="rounded=1;whiteSpace=wrap;html=1;strokeColor=default;align=center;verticalAlign=middle;fontFamily=Helvetica;fontSize=12;fontColor=default;resizable=1;fillColor=default;" vertex="1" parent="M1dsXv7yGWbkJlxqNbTj-179">
          <mxGeometry y="120" width="120" height="60" as="geometry" />
        </mxCell>
        <mxCell id="M1dsXv7yGWbkJlxqNbTj-180" value="" style="group" vertex="1" connectable="0" parent="1">
          <mxGeometry x="1580" y="80" width="840" height="380" as="geometry" />
        </mxCell>
        <mxCell id="M1dsXv7yGWbkJlxqNbTj-21" value="*细胞能量的供应和利用" style="rounded=1;whiteSpace=wrap;html=1;strokeColor=default;align=center;verticalAlign=middle;fontFamily=Helvetica;fontSize=12;fontColor=default;resizable=1;fillColor=default;movable=1;rotatable=1;deletable=1;editable=1;locked=0;connectable=1;" vertex="1" parent="M1dsXv7yGWbkJlxqNbTj-180">
          <mxGeometry x="120" width="120" height="60" as="geometry" />
        </mxCell>
        <mxCell id="M1dsXv7yGWbkJlxqNbTj-22" value="遗传因子的发现" style="rounded=1;whiteSpace=wrap;html=1;strokeColor=default;align=center;verticalAlign=middle;fontFamily=Helvetica;fontSize=12;fontColor=default;resizable=1;fillColor=default;movable=1;rotatable=1;deletable=1;editable=1;locked=0;connectable=1;" vertex="1" parent="M1dsXv7yGWbkJlxqNbTj-180">
          <mxGeometry x="120" y="80" width="120" height="60" as="geometry" />
        </mxCell>
        <mxCell id="M1dsXv7yGWbkJlxqNbTj-23" value="必修一" style="rounded=1;whiteSpace=wrap;html=1;strokeColor=default;align=center;verticalAlign=middle;fontFamily=Helvetica;fontSize=12;fontColor=default;resizable=1;fillColor=default;movable=1;rotatable=1;deletable=1;editable=1;locked=0;connectable=1;" vertex="1" parent="M1dsXv7yGWbkJlxqNbTj-180">
          <mxGeometry width="120" height="60" as="geometry" />
        </mxCell>
        <mxCell id="M1dsXv7yGWbkJlxqNbTj-24" value="必修二" style="rounded=1;whiteSpace=wrap;html=1;strokeColor=default;align=center;verticalAlign=middle;fontFamily=Helvetica;fontSize=12;fontColor=default;resizable=1;fillColor=default;movable=1;rotatable=1;deletable=1;editable=1;locked=0;connectable=1;" vertex="1" parent="M1dsXv7yGWbkJlxqNbTj-180">
          <mxGeometry y="80" width="120" height="60" as="geometry" />
        </mxCell>
        <mxCell id="M1dsXv7yGWbkJlxqNbTj-25" value="基因和染色体的关系" style="rounded=1;whiteSpace=wrap;html=1;strokeColor=default;align=center;verticalAlign=middle;fontFamily=Helvetica;fontSize=12;fontColor=default;resizable=1;fillColor=default;movable=1;rotatable=1;deletable=1;editable=1;locked=0;connectable=1;" vertex="1" parent="M1dsXv7yGWbkJlxqNbTj-180">
          <mxGeometry x="240" y="80" width="120" height="60" as="geometry" />
        </mxCell>
        <mxCell id="M1dsXv7yGWbkJlxqNbTj-26" value="基因的本质" style="rounded=1;whiteSpace=wrap;html=1;strokeColor=default;align=center;verticalAlign=middle;fontFamily=Helvetica;fontSize=12;fontColor=default;resizable=1;fillColor=default;movable=1;rotatable=1;deletable=1;editable=1;locked=0;connectable=1;" vertex="1" parent="M1dsXv7yGWbkJlxqNbTj-180">
          <mxGeometry x="360" y="80" width="120" height="60" as="geometry" />
        </mxCell>
        <mxCell id="M1dsXv7yGWbkJlxqNbTj-27" value="基因的表达" style="rounded=1;whiteSpace=wrap;html=1;strokeColor=default;align=center;verticalAlign=middle;fontFamily=Helvetica;fontSize=12;fontColor=default;resizable=1;fillColor=default;movable=1;rotatable=1;deletable=1;editable=1;locked=0;connectable=1;" vertex="1" parent="M1dsXv7yGWbkJlxqNbTj-180">
          <mxGeometry x="480" y="80" width="120" height="60" as="geometry" />
        </mxCell>
        <mxCell id="M1dsXv7yGWbkJlxqNbTj-28" value="基因突变及其他变异" style="rounded=1;whiteSpace=wrap;html=1;strokeColor=default;align=center;verticalAlign=middle;fontFamily=Helvetica;fontSize=12;fontColor=default;resizable=1;fillColor=default;movable=1;rotatable=1;deletable=1;editable=1;locked=0;connectable=1;" vertex="1" parent="M1dsXv7yGWbkJlxqNbTj-180">
          <mxGeometry x="600" y="80" width="120" height="60" as="geometry" />
        </mxCell>
        <mxCell id="M1dsXv7yGWbkJlxqNbTj-29" value="生物的进化" style="rounded=1;whiteSpace=wrap;html=1;strokeColor=default;align=center;verticalAlign=middle;fontFamily=Helvetica;fontSize=12;fontColor=default;resizable=1;fillColor=default;movable=1;rotatable=1;deletable=1;editable=1;locked=0;connectable=1;" vertex="1" parent="M1dsXv7yGWbkJlxqNbTj-180">
          <mxGeometry x="720" y="80" width="120" height="60" as="geometry" />
        </mxCell>
        <mxCell id="M1dsXv7yGWbkJlxqNbTj-31" value="选必一" style="rounded=1;whiteSpace=wrap;html=1;strokeColor=default;align=center;verticalAlign=middle;fontFamily=Helvetica;fontSize=12;fontColor=default;resizable=1;fillColor=default;movable=1;rotatable=1;deletable=1;editable=1;locked=0;connectable=1;" vertex="1" parent="M1dsXv7yGWbkJlxqNbTj-180">
          <mxGeometry y="160" width="120" height="60" as="geometry" />
        </mxCell>
        <mxCell id="M1dsXv7yGWbkJlxqNbTj-32" value="人体内环境和稳态" style="rounded=1;whiteSpace=wrap;html=1;strokeColor=default;align=center;verticalAlign=middle;fontFamily=Helvetica;fontSize=12;fontColor=default;resizable=1;fillColor=default;movable=1;rotatable=1;deletable=1;editable=1;locked=0;connectable=1;" vertex="1" parent="M1dsXv7yGWbkJlxqNbTj-180">
          <mxGeometry x="120" y="160" width="120" height="60" as="geometry" />
        </mxCell>
        <mxCell id="M1dsXv7yGWbkJlxqNbTj-33" value="选必二" style="rounded=1;whiteSpace=wrap;html=1;strokeColor=default;align=center;verticalAlign=middle;fontFamily=Helvetica;fontSize=12;fontColor=default;resizable=1;fillColor=default;movable=1;rotatable=1;deletable=1;editable=1;locked=0;connectable=1;" vertex="1" parent="M1dsXv7yGWbkJlxqNbTj-180">
          <mxGeometry y="240" width="120" height="60" as="geometry" />
        </mxCell>
        <mxCell id="M1dsXv7yGWbkJlxqNbTj-34" value="种群及其动态" style="rounded=1;whiteSpace=wrap;html=1;strokeColor=default;align=center;verticalAlign=middle;fontFamily=Helvetica;fontSize=12;fontColor=default;resizable=1;fillColor=default;movable=1;rotatable=1;deletable=1;editable=1;locked=0;connectable=1;" vertex="1" parent="M1dsXv7yGWbkJlxqNbTj-180">
          <mxGeometry x="120" y="240" width="120" height="60" as="geometry" />
        </mxCell>
        <mxCell id="M1dsXv7yGWbkJlxqNbTj-35" value="神经调节" style="rounded=1;whiteSpace=wrap;html=1;strokeColor=default;align=center;verticalAlign=middle;fontFamily=Helvetica;fontSize=12;fontColor=default;resizable=1;fillColor=default;movable=1;rotatable=1;deletable=1;editable=1;locked=0;connectable=1;" vertex="1" parent="M1dsXv7yGWbkJlxqNbTj-180">
          <mxGeometry x="240" y="160" width="120" height="60" as="geometry" />
        </mxCell>
        <mxCell id="M1dsXv7yGWbkJlxqNbTj-36" value="植物生命活动的调节" style="rounded=1;whiteSpace=wrap;html=1;strokeColor=default;align=center;verticalAlign=middle;fontFamily=Helvetica;fontSize=12;fontColor=default;resizable=1;fillColor=default;movable=1;rotatable=1;deletable=1;editable=1;locked=0;connectable=1;" vertex="1" parent="M1dsXv7yGWbkJlxqNbTj-180">
          <mxGeometry x="600" y="160" width="120" height="60" as="geometry" />
        </mxCell>
        <mxCell id="M1dsXv7yGWbkJlxqNbTj-37" value="体液调节" style="rounded=1;whiteSpace=wrap;html=1;strokeColor=default;align=center;verticalAlign=middle;fontFamily=Helvetica;fontSize=12;fontColor=default;resizable=1;fillColor=default;movable=1;rotatable=1;deletable=1;editable=1;locked=0;connectable=1;" vertex="1" parent="M1dsXv7yGWbkJlxqNbTj-180">
          <mxGeometry x="360" y="160" width="120" height="60" as="geometry" />
        </mxCell>
        <mxCell id="M1dsXv7yGWbkJlxqNbTj-38" value="生态系统及其稳定性" style="rounded=1;whiteSpace=wrap;html=1;strokeColor=default;align=center;verticalAlign=middle;fontFamily=Helvetica;fontSize=12;fontColor=default;resizable=1;fillColor=default;movable=1;rotatable=1;deletable=1;editable=1;locked=0;connectable=1;" vertex="1" parent="M1dsXv7yGWbkJlxqNbTj-180">
          <mxGeometry x="360" y="240" width="120" height="60" as="geometry" />
        </mxCell>
        <mxCell id="M1dsXv7yGWbkJlxqNbTj-39" value="生态环境的保护" style="rounded=1;whiteSpace=wrap;html=1;strokeColor=default;align=center;verticalAlign=middle;fontFamily=Helvetica;fontSize=12;fontColor=default;resizable=1;fillColor=default;movable=1;rotatable=1;deletable=1;editable=1;locked=0;connectable=1;" vertex="1" parent="M1dsXv7yGWbkJlxqNbTj-180">
          <mxGeometry x="720" y="160" width="120" height="60" as="geometry" />
        </mxCell>
        <mxCell id="M1dsXv7yGWbkJlxqNbTj-40" value="群落及其演替" style="rounded=1;whiteSpace=wrap;html=1;strokeColor=default;align=center;verticalAlign=middle;fontFamily=Helvetica;fontSize=12;fontColor=default;resizable=1;fillColor=default;movable=1;rotatable=1;deletable=1;editable=1;locked=0;connectable=1;" vertex="1" parent="M1dsXv7yGWbkJlxqNbTj-180">
          <mxGeometry x="240" y="240" width="120" height="60" as="geometry" />
        </mxCell>
        <mxCell id="M1dsXv7yGWbkJlxqNbTj-41" value="发酵工程" style="rounded=1;whiteSpace=wrap;html=1;strokeColor=default;align=center;verticalAlign=middle;fontFamily=Helvetica;fontSize=12;fontColor=default;resizable=1;fillColor=default;movable=1;rotatable=1;deletable=1;editable=1;locked=0;connectable=1;" vertex="1" parent="M1dsXv7yGWbkJlxqNbTj-180">
          <mxGeometry x="120" y="320" width="120" height="60" as="geometry" />
        </mxCell>
        <mxCell id="M1dsXv7yGWbkJlxqNbTj-42" value="人与环境" style="rounded=1;whiteSpace=wrap;html=1;strokeColor=default;align=center;verticalAlign=middle;fontFamily=Helvetica;fontSize=12;fontColor=default;resizable=1;fillColor=default;movable=1;rotatable=1;deletable=1;editable=1;locked=0;connectable=1;" vertex="1" parent="M1dsXv7yGWbkJlxqNbTj-180">
          <mxGeometry x="480" y="240" width="120" height="60" as="geometry" />
        </mxCell>
        <mxCell id="M1dsXv7yGWbkJlxqNbTj-43" value="选必三" style="rounded=1;whiteSpace=wrap;html=1;strokeColor=default;align=center;verticalAlign=middle;fontFamily=Helvetica;fontSize=12;fontColor=default;resizable=1;fillColor=default;movable=1;rotatable=1;deletable=1;editable=1;locked=0;connectable=1;" vertex="1" parent="M1dsXv7yGWbkJlxqNbTj-180">
          <mxGeometry y="320" width="120" height="60" as="geometry" />
        </mxCell>
        <mxCell id="M1dsXv7yGWbkJlxqNbTj-44" value="基因工程" style="rounded=1;whiteSpace=wrap;html=1;strokeColor=default;align=center;verticalAlign=middle;fontFamily=Helvetica;fontSize=12;fontColor=default;resizable=1;fillColor=default;movable=1;rotatable=1;deletable=1;editable=1;locked=0;connectable=1;" vertex="1" parent="M1dsXv7yGWbkJlxqNbTj-180">
          <mxGeometry x="360" y="320" width="120" height="60" as="geometry" />
        </mxCell>
        <mxCell id="M1dsXv7yGWbkJlxqNbTj-45" value="免疫调节" style="rounded=1;whiteSpace=wrap;html=1;strokeColor=default;align=center;verticalAlign=middle;fontFamily=Helvetica;fontSize=12;fontColor=default;resizable=1;fillColor=default;movable=1;rotatable=1;deletable=1;editable=1;locked=0;connectable=1;" vertex="1" parent="M1dsXv7yGWbkJlxqNbTj-180">
          <mxGeometry x="480" y="160" width="120" height="60" as="geometry" />
        </mxCell>
        <mxCell id="M1dsXv7yGWbkJlxqNbTj-46" value="细胞工程" style="rounded=1;whiteSpace=wrap;html=1;strokeColor=default;align=center;verticalAlign=middle;fontFamily=Helvetica;fontSize=12;fontColor=default;resizable=1;fillColor=default;movable=1;rotatable=1;deletable=1;editable=1;locked=0;connectable=1;" vertex="1" parent="M1dsXv7yGWbkJlxqNbTj-180">
          <mxGeometry x="240" y="320" width="120" height="60" as="geometry" />
        </mxCell>
      </root>
    </mxGraphModel>
  </diagram>
  <diagram id="Ky6cOxJ18xBnBddFyJ0i" name="生物">
    <mxGraphModel dx="348" dy="213" grid="1" gridSize="10" guides="1" tooltips="1" connect="1" arrows="1" fold="1" page="1" pageScale="1" pageWidth="3300" pageHeight="4681" math="0" shadow="0">
      <root>
        <mxCell id="0" />
        <mxCell id="1" parent="0" />
        <mxCell id="SOqnGf_Q_IHKT-e9sQ55-1" value="" style="group" vertex="1" connectable="0" parent="1">
          <mxGeometry x="1580" y="499" width="600" height="60" as="geometry" />
        </mxCell>
        <mxCell id="SOqnGf_Q_IHKT-e9sQ55-2" value="*细胞能量的供应和利用" style="rounded=1;whiteSpace=wrap;html=1;strokeColor=default;align=center;verticalAlign=middle;fontFamily=Helvetica;fontSize=12;fontColor=default;resizable=1;fillColor=default;" vertex="1" parent="SOqnGf_Q_IHKT-e9sQ55-1">
          <mxGeometry width="120" height="60" as="geometry" />
        </mxCell>
        <mxCell id="SOqnGf_Q_IHKT-e9sQ55-3" value="降低化学反应活化能的酶" style="rounded=1;whiteSpace=wrap;html=1;strokeColor=default;align=center;verticalAlign=middle;fontFamily=Helvetica;fontSize=12;fontColor=default;resizable=1;fillColor=default;" vertex="1" parent="SOqnGf_Q_IHKT-e9sQ55-1">
          <mxGeometry x="120" width="120" height="60" as="geometry" />
        </mxCell>
        <mxCell id="SOqnGf_Q_IHKT-e9sQ55-4" value="ATP" style="rounded=1;whiteSpace=wrap;html=1;strokeColor=default;align=center;verticalAlign=middle;fontFamily=Helvetica;fontSize=12;fontColor=default;resizable=1;fillColor=default;" vertex="1" parent="SOqnGf_Q_IHKT-e9sQ55-1">
          <mxGeometry x="240" width="120" height="60" as="geometry" />
        </mxCell>
        <mxCell id="SOqnGf_Q_IHKT-e9sQ55-5" value="细胞呼吸" style="rounded=1;whiteSpace=wrap;html=1;strokeColor=default;align=center;verticalAlign=middle;fontFamily=Helvetica;fontSize=12;fontColor=default;resizable=1;fillColor=default;" vertex="1" parent="SOqnGf_Q_IHKT-e9sQ55-1">
          <mxGeometry x="360" width="120" height="60" as="geometry" />
        </mxCell>
        <mxCell id="SOqnGf_Q_IHKT-e9sQ55-6" value="光合作用" style="rounded=1;whiteSpace=wrap;html=1;strokeColor=default;align=center;verticalAlign=middle;fontFamily=Helvetica;fontSize=12;fontColor=default;resizable=1;fillColor=default;" vertex="1" parent="SOqnGf_Q_IHKT-e9sQ55-1">
          <mxGeometry x="480" width="120" height="60" as="geometry" />
        </mxCell>
        <mxCell id="SOqnGf_Q_IHKT-e9sQ55-7" value="" style="group" vertex="1" connectable="0" parent="1">
          <mxGeometry x="1580" y="580" width="840" height="60" as="geometry" />
        </mxCell>
        <mxCell id="SOqnGf_Q_IHKT-e9sQ55-8" value="分离定律" style="rounded=1;whiteSpace=wrap;html=1;strokeColor=default;align=center;verticalAlign=middle;fontFamily=Helvetica;fontSize=12;fontColor=default;resizable=1;fillColor=default;" vertex="1" parent="SOqnGf_Q_IHKT-e9sQ55-7">
          <mxGeometry width="120" height="60" as="geometry" />
        </mxCell>
        <mxCell id="SOqnGf_Q_IHKT-e9sQ55-9" value="自由组合定律" style="rounded=1;whiteSpace=wrap;html=1;strokeColor=default;align=center;verticalAlign=middle;fontFamily=Helvetica;fontSize=12;fontColor=default;resizable=1;fillColor=default;" vertex="1" parent="SOqnGf_Q_IHKT-e9sQ55-7">
          <mxGeometry x="120" width="120" height="60" as="geometry" />
        </mxCell>
        <mxCell id="SOqnGf_Q_IHKT-e9sQ55-10" value="假说-演绎法" style="rounded=1;whiteSpace=wrap;html=1;strokeColor=default;align=center;verticalAlign=middle;fontFamily=Helvetica;fontSize=12;fontColor=default;resizable=1;fillColor=default;" vertex="1" parent="SOqnGf_Q_IHKT-e9sQ55-7">
          <mxGeometry x="240" width="120" height="60" as="geometry" />
        </mxCell>
        <mxCell id="SOqnGf_Q_IHKT-e9sQ55-11" value="减数分裂" style="rounded=1;whiteSpace=wrap;html=1;strokeColor=default;align=center;verticalAlign=middle;fontFamily=Helvetica;fontSize=12;fontColor=default;resizable=1;fillColor=default;" vertex="1" parent="SOqnGf_Q_IHKT-e9sQ55-7">
          <mxGeometry x="360" width="120" height="60" as="geometry" />
        </mxCell>
        <mxCell id="SOqnGf_Q_IHKT-e9sQ55-12" value="受精作用" style="rounded=1;whiteSpace=wrap;html=1;strokeColor=default;align=center;verticalAlign=middle;fontFamily=Helvetica;fontSize=12;fontColor=default;resizable=1;fillColor=default;" vertex="1" parent="SOqnGf_Q_IHKT-e9sQ55-7">
          <mxGeometry x="480" width="120" height="60" as="geometry" />
        </mxCell>
        <mxCell id="SOqnGf_Q_IHKT-e9sQ55-13" value="基因在染色体上" style="rounded=1;whiteSpace=wrap;html=1;strokeColor=default;align=center;verticalAlign=middle;fontFamily=Helvetica;fontSize=12;fontColor=default;resizable=1;fillColor=default;" vertex="1" parent="SOqnGf_Q_IHKT-e9sQ55-7">
          <mxGeometry x="600" width="120" height="60" as="geometry" />
        </mxCell>
        <mxCell id="SOqnGf_Q_IHKT-e9sQ55-14" value="伴性遗传" style="rounded=1;whiteSpace=wrap;html=1;strokeColor=default;align=center;verticalAlign=middle;fontFamily=Helvetica;fontSize=12;fontColor=default;resizable=1;fillColor=default;" vertex="1" parent="SOqnGf_Q_IHKT-e9sQ55-7">
          <mxGeometry x="720" width="120" height="60" as="geometry" />
        </mxCell>
        <mxCell id="SOqnGf_Q_IHKT-e9sQ55-15" value="" style="group" vertex="1" connectable="0" parent="1">
          <mxGeometry x="1580" y="660" width="600" height="300" as="geometry" />
        </mxCell>
        <mxCell id="SOqnGf_Q_IHKT-e9sQ55-16" value="稳态定义" style="rounded=1;whiteSpace=wrap;html=1;strokeColor=default;align=center;verticalAlign=middle;fontFamily=Helvetica;fontSize=12;fontColor=default;resizable=1;fillColor=default;" vertex="1" parent="SOqnGf_Q_IHKT-e9sQ55-15">
          <mxGeometry width="120" height="60" as="geometry" />
        </mxCell>
        <mxCell id="SOqnGf_Q_IHKT-e9sQ55-17" value="稳态影响因素" style="rounded=1;whiteSpace=wrap;html=1;strokeColor=default;align=center;verticalAlign=middle;fontFamily=Helvetica;fontSize=12;fontColor=default;resizable=1;fillColor=default;" vertex="1" parent="SOqnGf_Q_IHKT-e9sQ55-15">
          <mxGeometry x="120" width="120" height="60" as="geometry" />
        </mxCell>
        <mxCell id="SOqnGf_Q_IHKT-e9sQ55-18" value="结构基础" style="rounded=1;whiteSpace=wrap;html=1;strokeColor=default;align=center;verticalAlign=middle;fontFamily=Helvetica;fontSize=12;fontColor=default;resizable=1;fillColor=default;" vertex="1" parent="SOqnGf_Q_IHKT-e9sQ55-15">
          <mxGeometry y="60" width="120" height="60" as="geometry" />
        </mxCell>
        <mxCell id="SOqnGf_Q_IHKT-e9sQ55-19" value="基本方式" style="rounded=1;whiteSpace=wrap;html=1;strokeColor=default;align=center;verticalAlign=middle;fontFamily=Helvetica;fontSize=12;fontColor=default;resizable=1;fillColor=default;" vertex="1" parent="SOqnGf_Q_IHKT-e9sQ55-15">
          <mxGeometry x="120" y="60" width="120" height="60" as="geometry" />
        </mxCell>
        <mxCell id="SOqnGf_Q_IHKT-e9sQ55-20" value="产生与传导" style="rounded=1;whiteSpace=wrap;html=1;strokeColor=default;align=center;verticalAlign=middle;fontFamily=Helvetica;fontSize=12;fontColor=default;resizable=1;fillColor=default;" vertex="1" parent="SOqnGf_Q_IHKT-e9sQ55-15">
          <mxGeometry x="240" y="60" width="120" height="60" as="geometry" />
        </mxCell>
        <mxCell id="SOqnGf_Q_IHKT-e9sQ55-21" value="分级调节" style="rounded=1;whiteSpace=wrap;html=1;strokeColor=default;align=center;verticalAlign=middle;fontFamily=Helvetica;fontSize=12;fontColor=default;resizable=1;fillColor=default;" vertex="1" parent="SOqnGf_Q_IHKT-e9sQ55-15">
          <mxGeometry x="360" y="60" width="120" height="60" as="geometry" />
        </mxCell>
        <mxCell id="SOqnGf_Q_IHKT-e9sQ55-22" value="人脑高级功能" style="rounded=1;whiteSpace=wrap;html=1;strokeColor=default;align=center;verticalAlign=middle;fontFamily=Helvetica;fontSize=12;fontColor=default;resizable=1;fillColor=default;" vertex="1" parent="SOqnGf_Q_IHKT-e9sQ55-15">
          <mxGeometry x="480" y="60" width="120" height="60" as="geometry" />
        </mxCell>
        <mxCell id="SOqnGf_Q_IHKT-e9sQ55-23" value="激素与内分泌系统" style="rounded=1;whiteSpace=wrap;html=1;strokeColor=default;align=center;verticalAlign=middle;fontFamily=Helvetica;fontSize=12;fontColor=default;resizable=1;fillColor=default;" vertex="1" parent="SOqnGf_Q_IHKT-e9sQ55-15">
          <mxGeometry y="120" width="120" height="60" as="geometry" />
        </mxCell>
        <mxCell id="SOqnGf_Q_IHKT-e9sQ55-24" value="调节过程" style="rounded=1;whiteSpace=wrap;html=1;strokeColor=default;align=center;verticalAlign=middle;fontFamily=Helvetica;fontSize=12;fontColor=default;resizable=1;fillColor=default;" vertex="1" parent="SOqnGf_Q_IHKT-e9sQ55-15">
          <mxGeometry x="120" y="120" width="120" height="60" as="geometry" />
        </mxCell>
        <mxCell id="SOqnGf_Q_IHKT-e9sQ55-25" value="与神经调节的关系" style="rounded=1;whiteSpace=wrap;html=1;strokeColor=default;align=center;verticalAlign=middle;fontFamily=Helvetica;fontSize=12;fontColor=default;resizable=1;fillColor=default;" vertex="1" parent="SOqnGf_Q_IHKT-e9sQ55-15">
          <mxGeometry x="240" y="120" width="120" height="60" as="geometry" />
        </mxCell>
        <mxCell id="SOqnGf_Q_IHKT-e9sQ55-26" value="组成与功能" style="rounded=1;whiteSpace=wrap;html=1;strokeColor=default;align=center;verticalAlign=middle;fontFamily=Helvetica;fontSize=12;fontColor=default;resizable=1;fillColor=default;" vertex="1" parent="SOqnGf_Q_IHKT-e9sQ55-15">
          <mxGeometry y="180" width="120" height="60" as="geometry" />
        </mxCell>
        <mxCell id="SOqnGf_Q_IHKT-e9sQ55-27" value="特异性免疫" style="rounded=1;whiteSpace=wrap;html=1;strokeColor=default;align=center;verticalAlign=middle;fontFamily=Helvetica;fontSize=12;fontColor=default;resizable=1;fillColor=default;" vertex="1" parent="SOqnGf_Q_IHKT-e9sQ55-15">
          <mxGeometry x="120" y="180" width="120" height="60" as="geometry" />
        </mxCell>
        <mxCell id="SOqnGf_Q_IHKT-e9sQ55-28" value="免疫失调" style="rounded=1;whiteSpace=wrap;html=1;strokeColor=default;align=center;verticalAlign=middle;fontFamily=Helvetica;fontSize=12;fontColor=default;resizable=1;fillColor=default;" vertex="1" parent="SOqnGf_Q_IHKT-e9sQ55-15">
          <mxGeometry x="240" y="180" width="120" height="60" as="geometry" />
        </mxCell>
        <mxCell id="SOqnGf_Q_IHKT-e9sQ55-29" value="免疫学应用" style="rounded=1;whiteSpace=wrap;html=1;strokeColor=default;align=center;verticalAlign=middle;fontFamily=Helvetica;fontSize=12;fontColor=default;resizable=1;fillColor=default;" vertex="1" parent="SOqnGf_Q_IHKT-e9sQ55-15">
          <mxGeometry x="360" y="180" width="120" height="60" as="geometry" />
        </mxCell>
        <mxCell id="SOqnGf_Q_IHKT-e9sQ55-30" value="六大植物激素" style="rounded=1;whiteSpace=wrap;html=1;strokeColor=default;align=center;verticalAlign=middle;fontFamily=Helvetica;fontSize=12;fontColor=default;resizable=1;fillColor=default;" vertex="1" parent="SOqnGf_Q_IHKT-e9sQ55-15">
          <mxGeometry y="240" width="120" height="60" as="geometry" />
        </mxCell>
        <mxCell id="SOqnGf_Q_IHKT-e9sQ55-31" value="植物生长调节剂" style="rounded=1;whiteSpace=wrap;html=1;strokeColor=default;align=center;verticalAlign=middle;fontFamily=Helvetica;fontSize=12;fontColor=default;resizable=1;fillColor=default;" vertex="1" parent="SOqnGf_Q_IHKT-e9sQ55-15">
          <mxGeometry x="120" y="240" width="120" height="60" as="geometry" />
        </mxCell>
        <mxCell id="SOqnGf_Q_IHKT-e9sQ55-32" value="环境因素" style="rounded=1;whiteSpace=wrap;html=1;strokeColor=default;align=center;verticalAlign=middle;fontFamily=Helvetica;fontSize=12;fontColor=default;resizable=1;fillColor=default;" vertex="1" parent="SOqnGf_Q_IHKT-e9sQ55-15">
          <mxGeometry x="240" y="240" width="120" height="60" as="geometry" />
        </mxCell>
        <mxCell id="SOqnGf_Q_IHKT-e9sQ55-33" value="" style="group" vertex="1" connectable="0" parent="1">
          <mxGeometry x="1580" y="980" width="600" height="240" as="geometry" />
        </mxCell>
        <mxCell id="SOqnGf_Q_IHKT-e9sQ55-34" value="种群密度" style="rounded=1;whiteSpace=wrap;html=1;strokeColor=default;align=center;verticalAlign=middle;fontFamily=Helvetica;fontSize=12;fontColor=default;resizable=1;fillColor=default;" vertex="1" parent="SOqnGf_Q_IHKT-e9sQ55-33">
          <mxGeometry width="120" height="60" as="geometry" />
        </mxCell>
        <mxCell id="SOqnGf_Q_IHKT-e9sQ55-35" value="数量变化&lt;div&gt;（环境容载量）&lt;/div&gt;" style="rounded=1;whiteSpace=wrap;html=1;strokeColor=default;align=center;verticalAlign=middle;fontFamily=Helvetica;fontSize=12;fontColor=default;resizable=1;fillColor=default;" vertex="1" parent="SOqnGf_Q_IHKT-e9sQ55-33">
          <mxGeometry x="120" width="120" height="60" as="geometry" />
        </mxCell>
        <mxCell id="SOqnGf_Q_IHKT-e9sQ55-36" value="影响因素" style="rounded=1;whiteSpace=wrap;html=1;strokeColor=default;align=center;verticalAlign=middle;fontFamily=Helvetica;fontSize=12;fontColor=default;resizable=1;fillColor=default;" vertex="1" parent="SOqnGf_Q_IHKT-e9sQ55-33">
          <mxGeometry x="240" width="120" height="60" as="geometry" />
        </mxCell>
        <mxCell id="SOqnGf_Q_IHKT-e9sQ55-37" value="群落结构" style="rounded=1;whiteSpace=wrap;html=1;strokeColor=default;align=center;verticalAlign=middle;fontFamily=Helvetica;fontSize=12;fontColor=default;resizable=1;fillColor=default;" vertex="1" parent="SOqnGf_Q_IHKT-e9sQ55-33">
          <mxGeometry y="60" width="120" height="60" as="geometry" />
        </mxCell>
        <mxCell id="SOqnGf_Q_IHKT-e9sQ55-38" value="群落类型" style="rounded=1;whiteSpace=wrap;html=1;strokeColor=default;align=center;verticalAlign=middle;fontFamily=Helvetica;fontSize=12;fontColor=default;resizable=1;fillColor=default;" vertex="1" parent="SOqnGf_Q_IHKT-e9sQ55-33">
          <mxGeometry x="120" y="60" width="120" height="60" as="geometry" />
        </mxCell>
        <mxCell id="SOqnGf_Q_IHKT-e9sQ55-39" value="群落演替" style="rounded=1;whiteSpace=wrap;html=1;strokeColor=default;align=center;verticalAlign=middle;fontFamily=Helvetica;fontSize=12;fontColor=default;resizable=1;fillColor=default;" vertex="1" parent="SOqnGf_Q_IHKT-e9sQ55-33">
          <mxGeometry x="240" y="60" width="120" height="60" as="geometry" />
        </mxCell>
        <mxCell id="SOqnGf_Q_IHKT-e9sQ55-40" value="系统结构" style="rounded=1;whiteSpace=wrap;html=1;strokeColor=default;align=center;verticalAlign=middle;fontFamily=Helvetica;fontSize=12;fontColor=default;resizable=1;fillColor=default;" vertex="1" parent="SOqnGf_Q_IHKT-e9sQ55-33">
          <mxGeometry y="120" width="120" height="60" as="geometry" />
        </mxCell>
        <mxCell id="SOqnGf_Q_IHKT-e9sQ55-41" value="能量流动" style="rounded=1;whiteSpace=wrap;html=1;strokeColor=default;align=center;verticalAlign=middle;fontFamily=Helvetica;fontSize=12;fontColor=default;resizable=1;fillColor=default;" vertex="1" parent="SOqnGf_Q_IHKT-e9sQ55-33">
          <mxGeometry x="120" y="120" width="120" height="60" as="geometry" />
        </mxCell>
        <mxCell id="SOqnGf_Q_IHKT-e9sQ55-42" value="物质循环" style="rounded=1;whiteSpace=wrap;html=1;strokeColor=default;align=center;verticalAlign=middle;fontFamily=Helvetica;fontSize=12;fontColor=default;resizable=1;fillColor=default;" vertex="1" parent="SOqnGf_Q_IHKT-e9sQ55-33">
          <mxGeometry x="240" y="120" width="120" height="60" as="geometry" />
        </mxCell>
        <mxCell id="SOqnGf_Q_IHKT-e9sQ55-43" value="信息传递" style="rounded=1;whiteSpace=wrap;html=1;strokeColor=default;align=center;verticalAlign=middle;fontFamily=Helvetica;fontSize=12;fontColor=default;resizable=1;fillColor=default;" vertex="1" parent="SOqnGf_Q_IHKT-e9sQ55-33">
          <mxGeometry x="360" y="120" width="120" height="60" as="geometry" />
        </mxCell>
        <mxCell id="SOqnGf_Q_IHKT-e9sQ55-44" value="稳定性" style="rounded=1;whiteSpace=wrap;html=1;strokeColor=default;align=center;verticalAlign=middle;fontFamily=Helvetica;fontSize=12;fontColor=default;resizable=1;fillColor=default;" vertex="1" parent="SOqnGf_Q_IHKT-e9sQ55-33">
          <mxGeometry x="480" y="120" width="120" height="60" as="geometry" />
        </mxCell>
        <mxCell id="SOqnGf_Q_IHKT-e9sQ55-45" value="生态工程" style="rounded=1;whiteSpace=wrap;html=1;strokeColor=default;align=center;verticalAlign=middle;fontFamily=Helvetica;fontSize=12;fontColor=default;resizable=1;fillColor=default;" vertex="1" parent="SOqnGf_Q_IHKT-e9sQ55-33">
          <mxGeometry x="240" y="180" width="120" height="60" as="geometry" />
        </mxCell>
        <mxCell id="SOqnGf_Q_IHKT-e9sQ55-46" value="生物多样性" style="rounded=1;whiteSpace=wrap;html=1;strokeColor=default;align=center;verticalAlign=middle;fontFamily=Helvetica;fontSize=12;fontColor=default;resizable=1;fillColor=default;" vertex="1" parent="SOqnGf_Q_IHKT-e9sQ55-33">
          <mxGeometry x="120" y="180" width="120" height="60" as="geometry" />
        </mxCell>
        <mxCell id="SOqnGf_Q_IHKT-e9sQ55-47" value="生态问题" style="rounded=1;whiteSpace=wrap;html=1;strokeColor=default;align=center;verticalAlign=middle;fontFamily=Helvetica;fontSize=12;fontColor=default;resizable=1;fillColor=default;" vertex="1" parent="SOqnGf_Q_IHKT-e9sQ55-33">
          <mxGeometry y="180" width="120" height="60" as="geometry" />
        </mxCell>
        <mxCell id="SOqnGf_Q_IHKT-e9sQ55-48" value="" style="group" vertex="1" connectable="0" parent="1">
          <mxGeometry x="1580" y="1240" width="360" height="180" as="geometry" />
        </mxCell>
        <mxCell id="SOqnGf_Q_IHKT-e9sQ55-49" value="果酒果醋泡菜腐乳" style="rounded=1;whiteSpace=wrap;html=1;strokeColor=default;align=center;verticalAlign=middle;fontFamily=Helvetica;fontSize=12;fontColor=default;resizable=1;fillColor=default;" vertex="1" parent="SOqnGf_Q_IHKT-e9sQ55-48">
          <mxGeometry width="120" height="60" as="geometry" />
        </mxCell>
        <mxCell id="SOqnGf_Q_IHKT-e9sQ55-50" value="培养与计数" style="rounded=1;whiteSpace=wrap;html=1;strokeColor=default;align=center;verticalAlign=middle;fontFamily=Helvetica;fontSize=12;fontColor=default;resizable=1;fillColor=default;" vertex="1" parent="SOqnGf_Q_IHKT-e9sQ55-48">
          <mxGeometry x="120" width="120" height="60" as="geometry" />
        </mxCell>
        <mxCell id="SOqnGf_Q_IHKT-e9sQ55-51" value="发酵工程" style="rounded=1;whiteSpace=wrap;html=1;strokeColor=default;align=center;verticalAlign=middle;fontFamily=Helvetica;fontSize=12;fontColor=default;resizable=1;fillColor=default;" vertex="1" parent="SOqnGf_Q_IHKT-e9sQ55-48">
          <mxGeometry x="240" width="120" height="60" as="geometry" />
        </mxCell>
        <mxCell id="SOqnGf_Q_IHKT-e9sQ55-52" value="植物细胞工程" style="rounded=1;whiteSpace=wrap;html=1;strokeColor=default;align=center;verticalAlign=middle;fontFamily=Helvetica;fontSize=12;fontColor=default;resizable=1;fillColor=default;" vertex="1" parent="SOqnGf_Q_IHKT-e9sQ55-48">
          <mxGeometry y="60" width="120" height="60" as="geometry" />
        </mxCell>
        <mxCell id="SOqnGf_Q_IHKT-e9sQ55-53" value="动物细胞工程" style="rounded=1;whiteSpace=wrap;html=1;strokeColor=default;align=center;verticalAlign=middle;fontFamily=Helvetica;fontSize=12;fontColor=default;resizable=1;fillColor=default;" vertex="1" parent="SOqnGf_Q_IHKT-e9sQ55-48">
          <mxGeometry x="120" y="60" width="120" height="60" as="geometry" />
        </mxCell>
        <mxCell id="SOqnGf_Q_IHKT-e9sQ55-54" value="胚胎工程" style="rounded=1;whiteSpace=wrap;html=1;strokeColor=default;align=center;verticalAlign=middle;fontFamily=Helvetica;fontSize=12;fontColor=default;resizable=1;fillColor=default;" vertex="1" parent="SOqnGf_Q_IHKT-e9sQ55-48">
          <mxGeometry x="240" y="60" width="120" height="60" as="geometry" />
        </mxCell>
        <mxCell id="SOqnGf_Q_IHKT-e9sQ55-55" value="重组DNA的基本工具" style="rounded=1;whiteSpace=wrap;html=1;strokeColor=default;align=center;verticalAlign=middle;fontFamily=Helvetica;fontSize=12;fontColor=default;resizable=1;fillColor=default;" vertex="1" parent="SOqnGf_Q_IHKT-e9sQ55-48">
          <mxGeometry y="120" width="120" height="60" as="geometry" />
        </mxCell>
        <mxCell id="SOqnGf_Q_IHKT-e9sQ55-56" value="" style="group" vertex="1" connectable="0" parent="1">
          <mxGeometry x="1580" y="80" width="840" height="380" as="geometry" />
        </mxCell>
        <mxCell id="SOqnGf_Q_IHKT-e9sQ55-57" value="*细胞能量的供应和利用" style="rounded=1;whiteSpace=wrap;html=1;strokeColor=default;align=center;verticalAlign=middle;fontFamily=Helvetica;fontSize=12;fontColor=default;resizable=1;fillColor=default;movable=1;rotatable=1;deletable=1;editable=1;locked=0;connectable=1;" vertex="1" parent="SOqnGf_Q_IHKT-e9sQ55-56">
          <mxGeometry x="120" width="120" height="60" as="geometry" />
        </mxCell>
        <mxCell id="SOqnGf_Q_IHKT-e9sQ55-58" value="遗传因子的发现" style="rounded=1;whiteSpace=wrap;html=1;strokeColor=default;align=center;verticalAlign=middle;fontFamily=Helvetica;fontSize=12;fontColor=default;resizable=1;fillColor=default;movable=1;rotatable=1;deletable=1;editable=1;locked=0;connectable=1;" vertex="1" parent="SOqnGf_Q_IHKT-e9sQ55-56">
          <mxGeometry x="120" y="80" width="120" height="60" as="geometry" />
        </mxCell>
        <mxCell id="SOqnGf_Q_IHKT-e9sQ55-59" value="必修一" style="rounded=1;whiteSpace=wrap;html=1;strokeColor=default;align=center;verticalAlign=middle;fontFamily=Helvetica;fontSize=12;fontColor=default;resizable=1;fillColor=default;movable=1;rotatable=1;deletable=1;editable=1;locked=0;connectable=1;" vertex="1" parent="SOqnGf_Q_IHKT-e9sQ55-56">
          <mxGeometry width="120" height="60" as="geometry" />
        </mxCell>
        <mxCell id="SOqnGf_Q_IHKT-e9sQ55-60" value="必修二" style="rounded=1;whiteSpace=wrap;html=1;strokeColor=default;align=center;verticalAlign=middle;fontFamily=Helvetica;fontSize=12;fontColor=default;resizable=1;fillColor=default;movable=1;rotatable=1;deletable=1;editable=1;locked=0;connectable=1;" vertex="1" parent="SOqnGf_Q_IHKT-e9sQ55-56">
          <mxGeometry y="80" width="120" height="60" as="geometry" />
        </mxCell>
        <mxCell id="SOqnGf_Q_IHKT-e9sQ55-61" value="基因和染色体的关系" style="rounded=1;whiteSpace=wrap;html=1;strokeColor=default;align=center;verticalAlign=middle;fontFamily=Helvetica;fontSize=12;fontColor=default;resizable=1;fillColor=default;movable=1;rotatable=1;deletable=1;editable=1;locked=0;connectable=1;" vertex="1" parent="SOqnGf_Q_IHKT-e9sQ55-56">
          <mxGeometry x="240" y="80" width="120" height="60" as="geometry" />
        </mxCell>
        <mxCell id="SOqnGf_Q_IHKT-e9sQ55-62" value="基因的本质" style="rounded=1;whiteSpace=wrap;html=1;strokeColor=default;align=center;verticalAlign=middle;fontFamily=Helvetica;fontSize=12;fontColor=default;resizable=1;fillColor=default;movable=1;rotatable=1;deletable=1;editable=1;locked=0;connectable=1;" vertex="1" parent="SOqnGf_Q_IHKT-e9sQ55-56">
          <mxGeometry x="360" y="80" width="120" height="60" as="geometry" />
        </mxCell>
        <mxCell id="SOqnGf_Q_IHKT-e9sQ55-63" value="基因的表达" style="rounded=1;whiteSpace=wrap;html=1;strokeColor=default;align=center;verticalAlign=middle;fontFamily=Helvetica;fontSize=12;fontColor=default;resizable=1;fillColor=default;movable=1;rotatable=1;deletable=1;editable=1;locked=0;connectable=1;" vertex="1" parent="SOqnGf_Q_IHKT-e9sQ55-56">
          <mxGeometry x="480" y="80" width="120" height="60" as="geometry" />
        </mxCell>
        <mxCell id="SOqnGf_Q_IHKT-e9sQ55-64" value="基因突变及其他变异" style="rounded=1;whiteSpace=wrap;html=1;strokeColor=default;align=center;verticalAlign=middle;fontFamily=Helvetica;fontSize=12;fontColor=default;resizable=1;fillColor=default;movable=1;rotatable=1;deletable=1;editable=1;locked=0;connectable=1;" vertex="1" parent="SOqnGf_Q_IHKT-e9sQ55-56">
          <mxGeometry x="600" y="80" width="120" height="60" as="geometry" />
        </mxCell>
        <mxCell id="SOqnGf_Q_IHKT-e9sQ55-65" value="生物的进化" style="rounded=1;whiteSpace=wrap;html=1;strokeColor=default;align=center;verticalAlign=middle;fontFamily=Helvetica;fontSize=12;fontColor=default;resizable=1;fillColor=default;movable=1;rotatable=1;deletable=1;editable=1;locked=0;connectable=1;" vertex="1" parent="SOqnGf_Q_IHKT-e9sQ55-56">
          <mxGeometry x="720" y="80" width="120" height="60" as="geometry" />
        </mxCell>
        <mxCell id="SOqnGf_Q_IHKT-e9sQ55-66" value="选必一" style="rounded=1;whiteSpace=wrap;html=1;strokeColor=default;align=center;verticalAlign=middle;fontFamily=Helvetica;fontSize=12;fontColor=default;resizable=1;fillColor=default;movable=1;rotatable=1;deletable=1;editable=1;locked=0;connectable=1;" vertex="1" parent="SOqnGf_Q_IHKT-e9sQ55-56">
          <mxGeometry y="160" width="120" height="60" as="geometry" />
        </mxCell>
        <mxCell id="SOqnGf_Q_IHKT-e9sQ55-67" value="人体内环境和稳态" style="rounded=1;whiteSpace=wrap;html=1;strokeColor=default;align=center;verticalAlign=middle;fontFamily=Helvetica;fontSize=12;fontColor=default;resizable=1;fillColor=default;movable=1;rotatable=1;deletable=1;editable=1;locked=0;connectable=1;" vertex="1" parent="SOqnGf_Q_IHKT-e9sQ55-56">
          <mxGeometry x="120" y="160" width="120" height="60" as="geometry" />
        </mxCell>
        <mxCell id="SOqnGf_Q_IHKT-e9sQ55-68" value="选必二" style="rounded=1;whiteSpace=wrap;html=1;strokeColor=default;align=center;verticalAlign=middle;fontFamily=Helvetica;fontSize=12;fontColor=default;resizable=1;fillColor=default;movable=1;rotatable=1;deletable=1;editable=1;locked=0;connectable=1;" vertex="1" parent="SOqnGf_Q_IHKT-e9sQ55-56">
          <mxGeometry y="240" width="120" height="60" as="geometry" />
        </mxCell>
        <mxCell id="SOqnGf_Q_IHKT-e9sQ55-69" value="种群及其动态" style="rounded=1;whiteSpace=wrap;html=1;strokeColor=default;align=center;verticalAlign=middle;fontFamily=Helvetica;fontSize=12;fontColor=default;resizable=1;fillColor=default;movable=1;rotatable=1;deletable=1;editable=1;locked=0;connectable=1;" vertex="1" parent="SOqnGf_Q_IHKT-e9sQ55-56">
          <mxGeometry x="120" y="240" width="120" height="60" as="geometry" />
        </mxCell>
        <mxCell id="SOqnGf_Q_IHKT-e9sQ55-70" value="神经调节" style="rounded=1;whiteSpace=wrap;html=1;strokeColor=default;align=center;verticalAlign=middle;fontFamily=Helvetica;fontSize=12;fontColor=default;resizable=1;fillColor=default;movable=1;rotatable=1;deletable=1;editable=1;locked=0;connectable=1;" vertex="1" parent="SOqnGf_Q_IHKT-e9sQ55-56">
          <mxGeometry x="240" y="160" width="120" height="60" as="geometry" />
        </mxCell>
        <mxCell id="SOqnGf_Q_IHKT-e9sQ55-71" value="植物生命活动的调节" style="rounded=1;whiteSpace=wrap;html=1;strokeColor=default;align=center;verticalAlign=middle;fontFamily=Helvetica;fontSize=12;fontColor=default;resizable=1;fillColor=default;movable=1;rotatable=1;deletable=1;editable=1;locked=0;connectable=1;" vertex="1" parent="SOqnGf_Q_IHKT-e9sQ55-56">
          <mxGeometry x="600" y="160" width="120" height="60" as="geometry" />
        </mxCell>
        <mxCell id="SOqnGf_Q_IHKT-e9sQ55-72" value="体液调节" style="rounded=1;whiteSpace=wrap;html=1;strokeColor=default;align=center;verticalAlign=middle;fontFamily=Helvetica;fontSize=12;fontColor=default;resizable=1;fillColor=default;movable=1;rotatable=1;deletable=1;editable=1;locked=0;connectable=1;" vertex="1" parent="SOqnGf_Q_IHKT-e9sQ55-56">
          <mxGeometry x="360" y="160" width="120" height="60" as="geometry" />
        </mxCell>
        <mxCell id="SOqnGf_Q_IHKT-e9sQ55-73" value="生态系统及其稳定性" style="rounded=1;whiteSpace=wrap;html=1;strokeColor=default;align=center;verticalAlign=middle;fontFamily=Helvetica;fontSize=12;fontColor=default;resizable=1;fillColor=default;movable=1;rotatable=1;deletable=1;editable=1;locked=0;connectable=1;" vertex="1" parent="SOqnGf_Q_IHKT-e9sQ55-56">
          <mxGeometry x="360" y="240" width="120" height="60" as="geometry" />
        </mxCell>
        <mxCell id="SOqnGf_Q_IHKT-e9sQ55-74" value="生态环境的保护" style="rounded=1;whiteSpace=wrap;html=1;strokeColor=default;align=center;verticalAlign=middle;fontFamily=Helvetica;fontSize=12;fontColor=default;resizable=1;fillColor=default;movable=1;rotatable=1;deletable=1;editable=1;locked=0;connectable=1;" vertex="1" parent="SOqnGf_Q_IHKT-e9sQ55-56">
          <mxGeometry x="720" y="160" width="120" height="60" as="geometry" />
        </mxCell>
        <mxCell id="SOqnGf_Q_IHKT-e9sQ55-75" value="群落及其演替" style="rounded=1;whiteSpace=wrap;html=1;strokeColor=default;align=center;verticalAlign=middle;fontFamily=Helvetica;fontSize=12;fontColor=default;resizable=1;fillColor=default;movable=1;rotatable=1;deletable=1;editable=1;locked=0;connectable=1;" vertex="1" parent="SOqnGf_Q_IHKT-e9sQ55-56">
          <mxGeometry x="240" y="240" width="120" height="60" as="geometry" />
        </mxCell>
        <mxCell id="SOqnGf_Q_IHKT-e9sQ55-76" value="发酵工程" style="rounded=1;whiteSpace=wrap;html=1;strokeColor=default;align=center;verticalAlign=middle;fontFamily=Helvetica;fontSize=12;fontColor=default;resizable=1;fillColor=default;movable=1;rotatable=1;deletable=1;editable=1;locked=0;connectable=1;" vertex="1" parent="SOqnGf_Q_IHKT-e9sQ55-56">
          <mxGeometry x="120" y="320" width="120" height="60" as="geometry" />
        </mxCell>
        <mxCell id="SOqnGf_Q_IHKT-e9sQ55-77" value="人与环境" style="rounded=1;whiteSpace=wrap;html=1;strokeColor=default;align=center;verticalAlign=middle;fontFamily=Helvetica;fontSize=12;fontColor=default;resizable=1;fillColor=default;movable=1;rotatable=1;deletable=1;editable=1;locked=0;connectable=1;" vertex="1" parent="SOqnGf_Q_IHKT-e9sQ55-56">
          <mxGeometry x="480" y="240" width="120" height="60" as="geometry" />
        </mxCell>
        <mxCell id="SOqnGf_Q_IHKT-e9sQ55-78" value="选必三" style="rounded=1;whiteSpace=wrap;html=1;strokeColor=default;align=center;verticalAlign=middle;fontFamily=Helvetica;fontSize=12;fontColor=default;resizable=1;fillColor=default;movable=1;rotatable=1;deletable=1;editable=1;locked=0;connectable=1;" vertex="1" parent="SOqnGf_Q_IHKT-e9sQ55-56">
          <mxGeometry y="320" width="120" height="60" as="geometry" />
        </mxCell>
        <mxCell id="SOqnGf_Q_IHKT-e9sQ55-79" value="基因工程" style="rounded=1;whiteSpace=wrap;html=1;strokeColor=default;align=center;verticalAlign=middle;fontFamily=Helvetica;fontSize=12;fontColor=default;resizable=1;fillColor=default;movable=1;rotatable=1;deletable=1;editable=1;locked=0;connectable=1;" vertex="1" parent="SOqnGf_Q_IHKT-e9sQ55-56">
          <mxGeometry x="360" y="320" width="120" height="60" as="geometry" />
        </mxCell>
        <mxCell id="SOqnGf_Q_IHKT-e9sQ55-80" value="免疫调节" style="rounded=1;whiteSpace=wrap;html=1;strokeColor=default;align=center;verticalAlign=middle;fontFamily=Helvetica;fontSize=12;fontColor=default;resizable=1;fillColor=default;movable=1;rotatable=1;deletable=1;editable=1;locked=0;connectable=1;" vertex="1" parent="SOqnGf_Q_IHKT-e9sQ55-56">
          <mxGeometry x="480" y="160" width="120" height="60" as="geometry" />
        </mxCell>
        <mxCell id="SOqnGf_Q_IHKT-e9sQ55-81" value="细胞工程" style="rounded=1;whiteSpace=wrap;html=1;strokeColor=default;align=center;verticalAlign=middle;fontFamily=Helvetica;fontSize=12;fontColor=default;resizable=1;fillColor=default;movable=1;rotatable=1;deletable=1;editable=1;locked=0;connectable=1;" vertex="1" parent="SOqnGf_Q_IHKT-e9sQ55-56">
          <mxGeometry x="240" y="320" width="120" height="60" as="geometry" />
        </mxCell>
        <mxCell id="IwmDZE2_lCurSOUHkjlp-2" value="果酒果醋泡菜腐乳" style="rounded=1;whiteSpace=wrap;html=1;strokeColor=default;align=center;verticalAlign=middle;fontFamily=Helvetica;fontSize=12;fontColor=default;resizable=1;fillColor=default;" vertex="1" parent="1">
          <mxGeometry x="2120" y="3980" width="120" height="60" as="geometry" />
        </mxCell>
        <mxCell id="IwmDZE2_lCurSOUHkjlp-3" value="培养与计数" style="rounded=1;whiteSpace=wrap;html=1;strokeColor=default;align=center;verticalAlign=middle;fontFamily=Helvetica;fontSize=12;fontColor=default;resizable=1;fillColor=default;" vertex="1" parent="1">
          <mxGeometry x="2240" y="3980" width="120" height="60" as="geometry" />
        </mxCell>
        <mxCell id="IwmDZE2_lCurSOUHkjlp-4" value="发酵工程" style="rounded=1;whiteSpace=wrap;html=1;strokeColor=default;align=center;verticalAlign=middle;fontFamily=Helvetica;fontSize=12;fontColor=default;resizable=1;fillColor=default;" vertex="1" parent="1">
          <mxGeometry x="2360" y="3980" width="120" height="60" as="geometry" />
        </mxCell>
        <mxCell id="IwmDZE2_lCurSOUHkjlp-5" value="植物细胞工程" style="rounded=1;whiteSpace=wrap;html=1;strokeColor=default;align=center;verticalAlign=middle;fontFamily=Helvetica;fontSize=12;fontColor=default;resizable=1;fillColor=default;" vertex="1" parent="1">
          <mxGeometry x="1850" y="4271" width="120" height="60" as="geometry" />
        </mxCell>
        <mxCell id="IwmDZE2_lCurSOUHkjlp-6" value="动物细胞工程" style="rounded=1;whiteSpace=wrap;html=1;strokeColor=default;align=center;verticalAlign=middle;fontFamily=Helvetica;fontSize=12;fontColor=default;resizable=1;fillColor=default;" vertex="1" parent="1">
          <mxGeometry x="2160" y="4271" width="120" height="60" as="geometry" />
        </mxCell>
        <mxCell id="IwmDZE2_lCurSOUHkjlp-7" value="胚胎工程" style="rounded=1;whiteSpace=wrap;html=1;strokeColor=default;align=center;verticalAlign=middle;fontFamily=Helvetica;fontSize=12;fontColor=default;resizable=1;fillColor=default;" vertex="1" parent="1">
          <mxGeometry x="2510" y="4271" width="120" height="60" as="geometry" />
        </mxCell>
        <mxCell id="IwmDZE2_lCurSOUHkjlp-48" value="" style="group" vertex="1" connectable="0" parent="1">
          <mxGeometry x="2720" y="4331" width="580" height="350" as="geometry" />
        </mxCell>
        <mxCell id="IwmDZE2_lCurSOUHkjlp-8" value="重组DNA的基本工具" style="rounded=1;whiteSpace=wrap;html=1;strokeColor=default;align=center;verticalAlign=middle;fontFamily=Helvetica;fontSize=12;fontColor=default;resizable=1;fillColor=default;" vertex="1" parent="IwmDZE2_lCurSOUHkjlp-48">
          <mxGeometry x="200" width="120" height="60" as="geometry" />
        </mxCell>
        <mxCell id="IwmDZE2_lCurSOUHkjlp-9" value="限制酶" style="rounded=1;whiteSpace=wrap;html=1;strokeColor=default;align=center;verticalAlign=middle;fontFamily=Helvetica;fontSize=12;fontColor=default;resizable=1;fillColor=default;" vertex="1" parent="IwmDZE2_lCurSOUHkjlp-48">
          <mxGeometry y="70" width="120" height="60" as="geometry" />
        </mxCell>
        <mxCell id="IwmDZE2_lCurSOUHkjlp-10" value="DNA连接酶" style="rounded=1;whiteSpace=wrap;html=1;strokeColor=default;align=center;verticalAlign=middle;fontFamily=Helvetica;fontSize=12;fontColor=default;resizable=1;fillColor=default;" vertex="1" parent="IwmDZE2_lCurSOUHkjlp-48">
          <mxGeometry x="200" y="70" width="120" height="60" as="geometry" />
        </mxCell>
        <mxCell id="IwmDZE2_lCurSOUHkjlp-11" value="载体" style="rounded=1;whiteSpace=wrap;html=1;strokeColor=default;align=center;verticalAlign=middle;fontFamily=Helvetica;fontSize=12;fontColor=default;resizable=1;fillColor=default;" vertex="1" parent="IwmDZE2_lCurSOUHkjlp-48">
          <mxGeometry x="400" y="70" width="120" height="60" as="geometry" />
        </mxCell>
        <mxCell id="IwmDZE2_lCurSOUHkjlp-12" value="识别序列：&lt;div&gt;(通常)6个核苷酸组成&lt;/div&gt;" style="rounded=1;whiteSpace=wrap;html=1;strokeColor=default;align=center;verticalAlign=middle;fontFamily=Helvetica;fontSize=12;fontColor=default;resizable=1;fillColor=default;" vertex="1" parent="IwmDZE2_lCurSOUHkjlp-48">
          <mxGeometry y="180" width="120" height="30" as="geometry" />
        </mxCell>
        <mxCell id="IwmDZE2_lCurSOUHkjlp-14" value="作用对象：&lt;div&gt;DNA间磷酸二脂键&lt;/div&gt;" style="rounded=1;whiteSpace=wrap;html=1;strokeColor=default;align=center;verticalAlign=middle;fontFamily=Helvetica;fontSize=12;fontColor=default;resizable=1;fillColor=default;" vertex="1" parent="IwmDZE2_lCurSOUHkjlp-48">
          <mxGeometry y="140" width="120" height="30" as="geometry" />
        </mxCell>
        <mxCell id="IwmDZE2_lCurSOUHkjlp-15" value="粘性末端&lt;div&gt;不沿识别序列中轴线切开&lt;/div&gt;" style="rounded=1;whiteSpace=wrap;html=1;strokeColor=default;align=center;verticalAlign=middle;fontFamily=Helvetica;fontSize=12;fontColor=default;resizable=1;fillColor=default;" vertex="1" parent="IwmDZE2_lCurSOUHkjlp-48">
          <mxGeometry y="220" width="120" height="60" as="geometry" />
        </mxCell>
        <mxCell id="IwmDZE2_lCurSOUHkjlp-16" value="平末端&lt;div&gt;沿识别序列中轴线切开&lt;/div&gt;" style="rounded=1;whiteSpace=wrap;html=1;strokeColor=default;align=center;verticalAlign=middle;fontFamily=Helvetica;fontSize=12;fontColor=default;resizable=1;fillColor=default;" vertex="1" parent="IwmDZE2_lCurSOUHkjlp-48">
          <mxGeometry y="290" width="120" height="60" as="geometry" />
        </mxCell>
        <mxCell id="IwmDZE2_lCurSOUHkjlp-19" style="edgeStyle=orthogonalEdgeStyle;rounded=0;orthogonalLoop=1;jettySize=auto;html=1;fontFamily=Helvetica;fontSize=12;fontColor=default;resizable=1;" edge="1" parent="IwmDZE2_lCurSOUHkjlp-48" source="IwmDZE2_lCurSOUHkjlp-17">
          <mxGeometry relative="1" as="geometry">
            <mxPoint x="120" y="240" as="targetPoint" />
            <Array as="points">
              <mxPoint x="160" y="190" />
              <mxPoint x="160" y="240" />
              <mxPoint x="120" y="240" />
            </Array>
          </mxGeometry>
        </mxCell>
        <mxCell id="IwmDZE2_lCurSOUHkjlp-17" value="E.coli DNA连接酶" style="rounded=1;whiteSpace=wrap;html=1;strokeColor=default;align=center;verticalAlign=middle;fontFamily=Helvetica;fontSize=12;fontColor=default;resizable=1;fillColor=default;" vertex="1" parent="IwmDZE2_lCurSOUHkjlp-48">
          <mxGeometry x="200" y="160" width="120" height="60" as="geometry" />
        </mxCell>
        <mxCell id="IwmDZE2_lCurSOUHkjlp-22" style="edgeStyle=orthogonalEdgeStyle;rounded=0;orthogonalLoop=1;jettySize=auto;html=1;entryX=1;entryY=0.5;entryDx=0;entryDy=0;fontFamily=Helvetica;fontSize=12;fontColor=default;resizable=1;" edge="1" parent="IwmDZE2_lCurSOUHkjlp-48" source="IwmDZE2_lCurSOUHkjlp-18" target="IwmDZE2_lCurSOUHkjlp-16">
          <mxGeometry relative="1" as="geometry" />
        </mxCell>
        <mxCell id="IwmDZE2_lCurSOUHkjlp-23" style="edgeStyle=orthogonalEdgeStyle;rounded=0;orthogonalLoop=1;jettySize=auto;html=1;fontFamily=Helvetica;fontSize=12;fontColor=default;resizable=1;" edge="1" parent="IwmDZE2_lCurSOUHkjlp-48" source="IwmDZE2_lCurSOUHkjlp-18">
          <mxGeometry relative="1" as="geometry">
            <mxPoint x="120" y="260" as="targetPoint" />
            <Array as="points">
              <mxPoint x="160" y="280" />
              <mxPoint x="160" y="260" />
              <mxPoint x="120" y="260" />
            </Array>
          </mxGeometry>
        </mxCell>
        <mxCell id="IwmDZE2_lCurSOUHkjlp-18" value="T4 DNA连接酶" style="rounded=1;whiteSpace=wrap;html=1;strokeColor=default;align=center;verticalAlign=middle;fontFamily=Helvetica;fontSize=12;fontColor=default;resizable=1;fillColor=default;" vertex="1" parent="IwmDZE2_lCurSOUHkjlp-48">
          <mxGeometry x="200" y="250" width="120" height="60" as="geometry" />
        </mxCell>
        <mxCell id="IwmDZE2_lCurSOUHkjlp-20" value="可" style="text;html=1;align=center;verticalAlign=middle;whiteSpace=wrap;rounded=0;fontFamily=Helvetica;fontSize=12;fontColor=default;resizable=1;" vertex="1" parent="IwmDZE2_lCurSOUHkjlp-48">
          <mxGeometry x="150" y="220" width="10" height="10" as="geometry" />
        </mxCell>
        <mxCell id="IwmDZE2_lCurSOUHkjlp-24" value="可" style="text;html=1;align=center;verticalAlign=middle;whiteSpace=wrap;rounded=0;fontFamily=Helvetica;fontSize=12;fontColor=default;resizable=1;" vertex="1" parent="IwmDZE2_lCurSOUHkjlp-48">
          <mxGeometry x="160" y="260" width="10" height="10" as="geometry" />
        </mxCell>
        <mxCell id="IwmDZE2_lCurSOUHkjlp-25" value="可" style="text;html=1;align=center;verticalAlign=middle;whiteSpace=wrap;rounded=0;fontFamily=Helvetica;fontSize=12;fontColor=default;resizable=1;" vertex="1" parent="IwmDZE2_lCurSOUHkjlp-48">
          <mxGeometry x="160" y="300" width="10" height="10" as="geometry" />
        </mxCell>
        <mxCell id="IwmDZE2_lCurSOUHkjlp-26" value="质粒" style="rounded=1;whiteSpace=wrap;html=1;strokeColor=default;align=center;verticalAlign=middle;fontFamily=Helvetica;fontSize=12;fontColor=default;resizable=1;fillColor=default;" vertex="1" parent="IwmDZE2_lCurSOUHkjlp-48">
          <mxGeometry x="400" y="140" width="120" height="60" as="geometry" />
        </mxCell>
        <mxCell id="IwmDZE2_lCurSOUHkjlp-28" value="" style="strokeWidth=2;html=1;shape=mxgraph.flowchart.start_2;whiteSpace=wrap;rounded=1;strokeColor=default;align=center;verticalAlign=middle;fontFamily=Helvetica;fontSize=12;fontColor=default;resizable=1;fillColor=default;" vertex="1" parent="IwmDZE2_lCurSOUHkjlp-48">
          <mxGeometry x="400" y="220" width="120" height="120" as="geometry" />
        </mxCell>
        <mxCell id="IwmDZE2_lCurSOUHkjlp-27" value="" style="strokeWidth=2;html=1;shape=mxgraph.flowchart.start_2;whiteSpace=wrap;rounded=1;strokeColor=default;align=center;verticalAlign=middle;fontFamily=Helvetica;fontSize=12;fontColor=default;resizable=1;fillColor=default;" vertex="1" parent="IwmDZE2_lCurSOUHkjlp-48">
          <mxGeometry x="410" y="230" width="100" height="100" as="geometry" />
        </mxCell>
        <mxCell id="IwmDZE2_lCurSOUHkjlp-29" value="" style="shape=crossbar;whiteSpace=wrap;html=1;rounded=1;strokeColor=default;align=center;verticalAlign=middle;fontFamily=Helvetica;fontSize=12;fontColor=default;resizable=1;fillColor=default;" vertex="1" parent="IwmDZE2_lCurSOUHkjlp-48">
          <mxGeometry x="400" y="277.5" width="10" height="5" as="geometry" />
        </mxCell>
        <mxCell id="IwmDZE2_lCurSOUHkjlp-30" value="" style="shape=crossbar;whiteSpace=wrap;html=1;rounded=1;direction=south;strokeColor=default;align=center;verticalAlign=middle;fontFamily=Helvetica;fontSize=12;fontColor=default;resizable=1;fillColor=default;" vertex="1" parent="IwmDZE2_lCurSOUHkjlp-48">
          <mxGeometry x="455" y="330" width="10" height="10" as="geometry" />
        </mxCell>
        <mxCell id="IwmDZE2_lCurSOUHkjlp-31" value="" style="shape=crossbar;whiteSpace=wrap;html=1;rounded=1;strokeColor=default;align=center;verticalAlign=middle;fontFamily=Helvetica;fontSize=12;fontColor=default;resizable=1;fillColor=default;" vertex="1" parent="IwmDZE2_lCurSOUHkjlp-48">
          <mxGeometry x="510" y="277.5" width="10" height="5" as="geometry" />
        </mxCell>
        <mxCell id="IwmDZE2_lCurSOUHkjlp-35" value="" style="line;strokeWidth=2;html=1;rounded=1;strokeColor=default;align=center;verticalAlign=middle;fontFamily=Helvetica;fontSize=12;fontColor=default;resizable=1;fillColor=default;rotation=50;" vertex="1" parent="IwmDZE2_lCurSOUHkjlp-48">
          <mxGeometry x="410" y="240" width="10" height="10" as="geometry" />
        </mxCell>
        <mxCell id="IwmDZE2_lCurSOUHkjlp-37" value="" style="line;strokeWidth=2;html=1;rounded=1;strokeColor=default;align=center;verticalAlign=middle;fontFamily=Helvetica;fontSize=12;fontColor=default;resizable=1;fillColor=default;rotation=75;" vertex="1" parent="IwmDZE2_lCurSOUHkjlp-48">
          <mxGeometry x="440" y="220" width="10" height="10" as="geometry" />
        </mxCell>
        <mxCell id="IwmDZE2_lCurSOUHkjlp-38" value="" style="line;strokeWidth=2;html=1;rounded=1;strokeColor=default;align=center;verticalAlign=middle;fontFamily=Helvetica;fontSize=12;fontColor=default;resizable=1;fillColor=default;rotation=105;" vertex="1" parent="IwmDZE2_lCurSOUHkjlp-48">
          <mxGeometry x="465" y="220" width="10" height="10" as="geometry" />
        </mxCell>
        <mxCell id="IwmDZE2_lCurSOUHkjlp-39" value="" style="line;strokeWidth=2;html=1;rounded=1;strokeColor=default;align=center;verticalAlign=middle;fontFamily=Helvetica;fontSize=12;fontColor=default;resizable=1;fillColor=default;rotation=-15;" vertex="1" parent="IwmDZE2_lCurSOUHkjlp-48">
          <mxGeometry x="510" y="260" width="10" height="10" as="geometry" />
        </mxCell>
        <mxCell id="IwmDZE2_lCurSOUHkjlp-42" value="启动子" style="text;html=1;align=center;verticalAlign=middle;whiteSpace=wrap;rounded=0;fontFamily=Helvetica;fontSize=12;fontColor=default;resizable=1;" vertex="1" parent="IwmDZE2_lCurSOUHkjlp-48">
          <mxGeometry x="350" y="250" width="60" height="30" as="geometry" />
        </mxCell>
        <mxCell id="IwmDZE2_lCurSOUHkjlp-43" value="" style="shape=flexArrow;endArrow=classic;html=1;rounded=0;fontFamily=Helvetica;fontSize=12;fontColor=default;resizable=1;" edge="1" parent="IwmDZE2_lCurSOUHkjlp-48">
          <mxGeometry width="50" height="50" relative="1" as="geometry">
            <mxPoint x="410" y="250" as="sourcePoint" />
            <mxPoint x="420" y="240" as="targetPoint" />
          </mxGeometry>
        </mxCell>
        <mxCell id="IwmDZE2_lCurSOUHkjlp-44" value="终止子" style="text;html=1;align=center;verticalAlign=middle;whiteSpace=wrap;rounded=0;fontFamily=Helvetica;fontSize=12;fontColor=default;resizable=1;" vertex="1" parent="IwmDZE2_lCurSOUHkjlp-48">
          <mxGeometry x="485" y="210" width="60" height="30" as="geometry" />
        </mxCell>
        <mxCell id="IwmDZE2_lCurSOUHkjlp-45" value="限制酶切割点" style="text;html=1;align=center;verticalAlign=middle;whiteSpace=wrap;rounded=0;fontFamily=Helvetica;fontSize=12;fontColor=default;resizable=1;" vertex="1" parent="IwmDZE2_lCurSOUHkjlp-48">
          <mxGeometry x="380" y="200" width="60" height="30" as="geometry" />
        </mxCell>
        <mxCell id="IwmDZE2_lCurSOUHkjlp-46" value="复制原点" style="text;html=1;align=center;verticalAlign=middle;whiteSpace=wrap;rounded=0;fontFamily=Helvetica;fontSize=12;fontColor=default;resizable=1;" vertex="1" parent="IwmDZE2_lCurSOUHkjlp-48">
          <mxGeometry x="520" y="260" width="60" height="30" as="geometry" />
        </mxCell>
        <mxCell id="IwmDZE2_lCurSOUHkjlp-47" value="标记基因" style="text;html=1;align=center;verticalAlign=middle;whiteSpace=wrap;rounded=0;fontFamily=Helvetica;fontSize=12;fontColor=default;resizable=1;" vertex="1" parent="IwmDZE2_lCurSOUHkjlp-48">
          <mxGeometry x="360" y="310" width="60" height="30" as="geometry" />
        </mxCell>
        <mxCell id="IwmDZE2_lCurSOUHkjlp-49" value="植物组织培养技术" style="rounded=1;whiteSpace=wrap;html=1;strokeColor=default;align=center;verticalAlign=middle;fontFamily=Helvetica;fontSize=12;fontColor=default;resizable=1;fillColor=default;" vertex="1" parent="1">
          <mxGeometry x="1730" y="4350" width="120" height="60" as="geometry" />
        </mxCell>
        <mxCell id="IwmDZE2_lCurSOUHkjlp-50" value="植物体细胞杂交技术" style="rounded=1;whiteSpace=wrap;html=1;strokeColor=default;align=center;verticalAlign=middle;fontFamily=Helvetica;fontSize=12;fontColor=default;resizable=1;fillColor=default;" vertex="1" parent="1">
          <mxGeometry x="1970" y="4350" width="120" height="60" as="geometry" />
        </mxCell>
        <mxCell id="IwmDZE2_lCurSOUHkjlp-51" value="原理：植物细胞具有全能性" style="rounded=1;whiteSpace=wrap;html=1;strokeColor=default;align=center;verticalAlign=middle;fontFamily=Helvetica;fontSize=12;fontColor=default;resizable=1;fillColor=default;" vertex="1" parent="1">
          <mxGeometry x="1730" y="4420" width="120" height="30" as="geometry" />
        </mxCell>
        <mxCell id="IwmDZE2_lCurSOUHkjlp-54" style="edgeStyle=orthogonalEdgeStyle;rounded=0;orthogonalLoop=1;jettySize=auto;html=1;entryX=0.5;entryY=0;entryDx=0;entryDy=0;fontFamily=Helvetica;fontSize=12;fontColor=default;resizable=1;" edge="1" parent="1" source="IwmDZE2_lCurSOUHkjlp-52" target="IwmDZE2_lCurSOUHkjlp-53">
          <mxGeometry relative="1" as="geometry" />
        </mxCell>
        <mxCell id="IwmDZE2_lCurSOUHkjlp-52" value="正常细胞组织" style="rounded=1;whiteSpace=wrap;html=1;strokeColor=default;align=center;verticalAlign=middle;fontFamily=Helvetica;fontSize=12;fontColor=default;resizable=1;fillColor=default;" vertex="1" parent="1">
          <mxGeometry x="1730" y="4460" width="80" height="20" as="geometry" />
        </mxCell>
        <mxCell id="IwmDZE2_lCurSOUHkjlp-57" style="edgeStyle=orthogonalEdgeStyle;rounded=0;orthogonalLoop=1;jettySize=auto;html=1;entryX=0.5;entryY=0;entryDx=0;entryDy=0;fontFamily=Helvetica;fontSize=12;fontColor=default;resizable=1;" edge="1" parent="1" source="IwmDZE2_lCurSOUHkjlp-53" target="IwmDZE2_lCurSOUHkjlp-56">
          <mxGeometry relative="1" as="geometry" />
        </mxCell>
        <mxCell id="IwmDZE2_lCurSOUHkjlp-67" value="" style="edgeStyle=orthogonalEdgeStyle;rounded=0;orthogonalLoop=1;jettySize=auto;html=1;fontFamily=Helvetica;fontSize=12;fontColor=default;resizable=1;" edge="1" parent="1" source="IwmDZE2_lCurSOUHkjlp-53" target="IwmDZE2_lCurSOUHkjlp-66">
          <mxGeometry relative="1" as="geometry" />
        </mxCell>
        <mxCell id="IwmDZE2_lCurSOUHkjlp-53" value="愈伤组织" style="rounded=1;whiteSpace=wrap;html=1;strokeColor=default;align=center;verticalAlign=middle;fontFamily=Helvetica;fontSize=12;fontColor=default;resizable=1;fillColor=default;" vertex="1" parent="1">
          <mxGeometry x="1730" y="4500" width="80" height="20" as="geometry" />
        </mxCell>
        <mxCell id="IwmDZE2_lCurSOUHkjlp-55" value="脱分化" style="text;html=1;align=center;verticalAlign=middle;whiteSpace=wrap;rounded=0;fontFamily=Helvetica;fontSize=12;fontColor=default;resizable=1;" vertex="1" parent="1">
          <mxGeometry x="1780" y="4480" width="40" height="20" as="geometry" />
        </mxCell>
        <mxCell id="IwmDZE2_lCurSOUHkjlp-60" style="edgeStyle=orthogonalEdgeStyle;rounded=0;orthogonalLoop=1;jettySize=auto;html=1;exitX=0.25;exitY=1;exitDx=0;exitDy=0;fontFamily=Helvetica;fontSize=12;fontColor=default;resizable=1;" edge="1" parent="1" source="IwmDZE2_lCurSOUHkjlp-56">
          <mxGeometry relative="1" as="geometry">
            <mxPoint x="1750" y="4580" as="targetPoint" />
          </mxGeometry>
        </mxCell>
        <mxCell id="IwmDZE2_lCurSOUHkjlp-61" style="edgeStyle=orthogonalEdgeStyle;rounded=0;orthogonalLoop=1;jettySize=auto;html=1;exitX=0.75;exitY=1;exitDx=0;exitDy=0;entryX=0.75;entryY=0;entryDx=0;entryDy=0;fontFamily=Helvetica;fontSize=12;fontColor=default;resizable=1;" edge="1" parent="1" source="IwmDZE2_lCurSOUHkjlp-56" target="IwmDZE2_lCurSOUHkjlp-59">
          <mxGeometry relative="1" as="geometry" />
        </mxCell>
        <mxCell id="IwmDZE2_lCurSOUHkjlp-56" value="丛芽/胚状体" style="rounded=1;whiteSpace=wrap;html=1;strokeColor=default;align=center;verticalAlign=middle;fontFamily=Helvetica;fontSize=12;fontColor=default;resizable=1;fillColor=default;" vertex="1" parent="1">
          <mxGeometry x="1730" y="4541" width="80" height="19" as="geometry" />
        </mxCell>
        <mxCell id="IwmDZE2_lCurSOUHkjlp-58" value="再分化" style="text;html=1;align=center;verticalAlign=middle;whiteSpace=wrap;rounded=0;fontFamily=Helvetica;fontSize=12;fontColor=default;resizable=1;" vertex="1" parent="1">
          <mxGeometry x="1770" y="4520" width="60" height="30" as="geometry" />
        </mxCell>
        <mxCell id="IwmDZE2_lCurSOUHkjlp-65" style="edgeStyle=orthogonalEdgeStyle;rounded=0;orthogonalLoop=1;jettySize=auto;html=1;fontFamily=Helvetica;fontSize=12;fontColor=default;resizable=1;" edge="1" parent="1" source="IwmDZE2_lCurSOUHkjlp-59">
          <mxGeometry relative="1" as="geometry">
            <mxPoint x="1770" y="4620" as="targetPoint" />
          </mxGeometry>
        </mxCell>
        <mxCell id="IwmDZE2_lCurSOUHkjlp-59" value="试管苗" style="rounded=1;whiteSpace=wrap;html=1;strokeColor=default;align=center;verticalAlign=middle;fontFamily=Helvetica;fontSize=12;fontColor=default;resizable=1;fillColor=default;" vertex="1" parent="1">
          <mxGeometry x="1730" y="4581" width="80" height="19" as="geometry" />
        </mxCell>
        <mxCell id="IwmDZE2_lCurSOUHkjlp-62" value="再生根" style="text;html=1;align=center;verticalAlign=middle;whiteSpace=wrap;rounded=0;fontFamily=Helvetica;fontSize=12;fontColor=default;resizable=1;" vertex="1" parent="1">
          <mxGeometry x="1700" y="4560" width="50" height="20" as="geometry" />
        </mxCell>
        <mxCell id="IwmDZE2_lCurSOUHkjlp-63" value="继续培养" style="text;html=1;align=center;verticalAlign=middle;whiteSpace=wrap;rounded=0;fontFamily=Helvetica;fontSize=12;fontColor=default;resizable=1;" vertex="1" parent="1">
          <mxGeometry x="1800" y="4560" width="50" height="20" as="geometry" />
        </mxCell>
        <mxCell id="IwmDZE2_lCurSOUHkjlp-64" value="正常植株" style="rounded=1;whiteSpace=wrap;html=1;strokeColor=default;align=center;verticalAlign=middle;fontFamily=Helvetica;fontSize=12;fontColor=default;resizable=1;fillColor=default;" vertex="1" parent="1">
          <mxGeometry x="1730" y="4621" width="80" height="19" as="geometry" />
        </mxCell>
        <mxCell id="IwmDZE2_lCurSOUHkjlp-66" value="薄壁&lt;div&gt;分裂旺盛&lt;/div&gt;&lt;div&gt;易表现出全能性&lt;/div&gt;" style="rounded=1;whiteSpace=wrap;html=1;strokeColor=default;align=center;verticalAlign=middle;fontFamily=Helvetica;fontSize=12;fontColor=default;resizable=1;fillColor=default;" vertex="1" parent="1">
          <mxGeometry x="1560" y="4481" width="120" height="60" as="geometry" />
        </mxCell>
        <mxCell id="IwmDZE2_lCurSOUHkjlp-70" style="edgeStyle=orthogonalEdgeStyle;rounded=0;orthogonalLoop=1;jettySize=auto;html=1;fontFamily=Helvetica;fontSize=12;fontColor=default;resizable=1;" edge="1" parent="1" source="IwmDZE2_lCurSOUHkjlp-68" target="IwmDZE2_lCurSOUHkjlp-69">
          <mxGeometry relative="1" as="geometry" />
        </mxCell>
        <mxCell id="IwmDZE2_lCurSOUHkjlp-68" value="起点：1个/类细胞" style="rounded=1;whiteSpace=wrap;html=1;strokeColor=default;align=center;verticalAlign=middle;fontFamily=Helvetica;fontSize=12;fontColor=default;resizable=1;fillColor=default;" vertex="1" parent="1">
          <mxGeometry x="1580" y="4350" width="100" height="20" as="geometry" />
        </mxCell>
        <mxCell id="IwmDZE2_lCurSOUHkjlp-69" value="终点：完整个体/组织器官" style="rounded=1;whiteSpace=wrap;html=1;strokeColor=default;align=center;verticalAlign=middle;fontFamily=Helvetica;fontSize=12;fontColor=default;resizable=1;fillColor=default;" vertex="1" parent="1">
          <mxGeometry x="1580" y="4390" width="100" height="30" as="geometry" />
        </mxCell>
        <mxCell id="IwmDZE2_lCurSOUHkjlp-71" value="激素" style="rounded=1;whiteSpace=wrap;html=1;strokeColor=default;align=center;verticalAlign=middle;fontFamily=Helvetica;fontSize=12;fontColor=default;resizable=1;fillColor=default;" vertex="1" parent="1">
          <mxGeometry x="1430" y="4560" width="40" height="20" as="geometry" />
        </mxCell>
        <mxCell id="IwmDZE2_lCurSOUHkjlp-72" value="生长素/细胞分裂素？" style="rounded=1;whiteSpace=wrap;html=1;strokeColor=default;align=center;verticalAlign=middle;fontFamily=Helvetica;fontSize=12;fontColor=default;resizable=1;fillColor=default;" vertex="1" parent="1">
          <mxGeometry x="1470" y="4561" width="120" height="19" as="geometry" />
        </mxCell>
        <mxCell id="IwmDZE2_lCurSOUHkjlp-73" value="用时" style="rounded=1;whiteSpace=wrap;html=1;strokeColor=default;align=center;verticalAlign=middle;fontFamily=Helvetica;fontSize=12;fontColor=default;resizable=1;fillColor=default;" vertex="1" parent="1">
          <mxGeometry x="1590" y="4561" width="50" height="19" as="geometry" />
        </mxCell>
        <mxCell id="IwmDZE2_lCurSOUHkjlp-74" value="违约金" style="rounded=1;whiteSpace=wrap;html=1;strokeColor=default;align=center;verticalAlign=middle;fontFamily=Helvetica;fontSize=12;fontColor=default;resizable=1;fillColor=default;" vertex="1" parent="1">
          <mxGeometry x="1640" y="4561" width="60" height="19" as="geometry" />
        </mxCell>
      </root>
    </mxGraphModel>
  </diagram>
</mxfile>
